
<svg>
  <symbol xmlns="http://www.w3.org/2000/svg" viewBox="0 0 29 23" id="menuIcon">
    <path d="M1.5 2H27m0 19.5H1.5m0-10H17" stroke="#fff" stroke-width="3" stroke-linecap="round"></path>
  </symbol>
  <symbol xmlns="http://www.w3.org/2000/svg" viewBox="0 0 19 18" id="searchIcon">
    <path d="M18.815 16.83L13.58 11.6a7.082 7.082 0 001.59-4.475C15.17 3.196 11.97 0 8.038 0 4.103 0 .903 3.196.903 7.125s3.2 7.125 7.134 7.125a7.103 7.103 0 004.481-1.589l5.235 5.23a.376.376 0 00.531 0l.531-.531a.375.375 0 000-.53zM8.037 12.75c-3.106 0-5.632-2.523-5.632-5.625S4.931 1.5 8.037 1.5c3.105 0 5.632 2.523 5.632 5.625s-2.527 5.625-5.632 5.625z" fill="#33485D"></path>
  </symbol>
  <symbol xmlns="http://www.w3.org/2000/svg" viewBox="0 0 114 41" id="wezom_logo">
    <g clip-path="url(#clip0)" fill-rule="evenodd" clip-rule="evenodd">
      <path d="M111.763 2.453a7.437 7.437 0 00-10.488 0l-24.89 25.336a7.86 7.86 0 000 10.933 7.41 7.41 0 005.33 2.269 7.395 7.395 0 005.332-2.269l24.716-25.3a7.895 7.895 0 000-10.969z"></path>
      <path d="M51.704 2.453A7.445 7.445 0 0157.034.2a7.43 7.43 0 015.332 2.253l24.716 25.336a7.86 7.86 0 010 10.933 7.41 7.41 0 01-5.331 2.269 7.396 7.396 0 01-5.332-2.269l-24.715-25.3a7.86 7.86 0 010-10.969z"></path>
      <path d="M62.401 2.453A7.41 7.41 0 0057.07.185a7.396 7.396 0 00-5.331 2.268L27.023 27.789a7.86 7.86 0 000 10.933 7.445 7.445 0 005.331 2.253 7.43 7.43 0 005.331-2.253l24.716-25.336a7.86 7.86 0 000-10.933z"></path>
      <path d="M2.202 2.278A7.446 7.446 0 017.534.025a7.43 7.43 0 015.33 2.253L37.58 27.614a7.86 7.86 0 010 10.933 7.445 7.445 0 01-5.33 2.253 7.43 7.43 0 01-5.332-2.253L2.202 13.211a7.86 7.86 0 010-10.933z"></path>
    </g>
    <defs>
      <clipPath id="clip0">
        <path fill="#fff" d="M0 0h114v41H0z"></path>
      </clipPath>
    </defs>
  </symbol>

 <symbol  xmlns="http://www.w3.org/2000/svg" viewBox="0 0 34 34" id="category-1">
    <path fill="#E5E5E5" d="M0 0h34v34H0z"></path>
    <g filter="url(#filter0_d)">
      <path d="M-15-14h371v559c0 5.523-4.477 10-10 10H-5c-5.523 0-10-4.477-10-10V-14z" fill="#fff"></path>
      <path d="M32.867 0v1.7H17a15.196 15.196 0 00-6.892 1.647L6.233 2.184a3.251 3.251 0 00-4.05 4.05l1.164 3.875A15.196 15.196 0 001.7 17c0 .17.007.336.013.503a.485.485 0 00-.013.064v15.3H0V34h11.333v-1.133h-1.7v-2.462a15.253 15.253 0 0014.26.248l3.874 1.163a3.251 3.251 0 004.05-4.05l-1.164-3.875A15.195 15.195 0 0032.3 17a15.362 15.362 0 00-1.328-6.233h1.895v1.7H34V0h-1.133zM3.27 5.906A2.115 2.115 0 015.905 3.27l2.837.85c-.087.057-.17.114-.254.17l-.08.054a15.236 15.236 0 00-4.061 4.062l-.054.08c-.057.084-.117.17-.17.253L3.27 5.906zm5.23 26.96H2.833v-1.133H8.5v1.134zM2.833 30.6v-7.83c.14.344.294.682.458 1.014l.025.047c.15.302.312.6.485.893.02.033.038.067.056.1.171.287.352.567.541.841.048.069.097.135.145.203.151.213.308.422.472.627.057.07.107.139.163.207.19.231.388.453.59.675.086.093.175.183.263.275a15.446 15.446 0 001.682 1.496c.241.185.486.365.737.536.016.011.03.023.047.034l.003.882H2.833zm27.897-2.506a2.116 2.116 0 01-2.635 2.636l-2.837-.85c.087-.057.17-.114.254-.17l.08-.054a15.236 15.236 0 004.061-4.062l.054-.08c.057-.084.117-.17.17-.253l.853 2.833zM31.167 17a14.076 14.076 0 01-2.096 7.405c-.064.104-.131.206-.198.309a13.711 13.711 0 01-.731 1.02c-.081.103-.162.207-.246.308-.119.144-.24.285-.366.423-.056.062-.113.122-.17.183-.229.246-.466.483-.712.712a16.048 16.048 0 01-.606.536c-.101.084-.205.165-.309.246a13.711 13.711 0 01-1.02.732c-.102.066-.204.133-.308.197a14.126 14.126 0 01-15.538-.482c-.1-.07-.2-.139-.297-.211-.118-.088-.232-.18-.347-.27a14.86 14.86 0 01-.516-.429c-.09-.078-.18-.155-.268-.236a14.656 14.656 0 01-.553-.537c-.096-.098-.19-.197-.284-.297-.087-.095-.17-.191-.257-.288a13.81 13.81 0 01-.695-.852c-.032-.043-.061-.087-.092-.13-.125-.17-.248-.346-.366-.523-.039-.057-.075-.118-.114-.176a11.975 11.975 0 01-.322-.527l-.085-.147c-.121-.214-.238-.43-.348-.651l-.016-.035a14.122 14.122 0 01-1.46-5.735A13.425 13.425 0 012.834 17 14.075 14.075 0 014.93 9.595c.064-.104.131-.206.198-.309a13.626 13.626 0 01.731-1.02c.081-.103.162-.207.246-.308.119-.144.24-.285.366-.423.056-.062.113-.122.17-.183.229-.246.466-.483.712-.712a14.935 14.935 0 01.606-.536c.101-.084.205-.165.309-.246a13.626 13.626 0 011.02-.732c.102-.066.204-.133.308-.197A14.075 14.075 0 0117 2.833h11.333v6.8h-5.1v.035C19.17 6.212 13.075 6.704 9.62 10.767 6.162 14.83 6.654 20.925 10.717 24.38A9.658 9.658 0 0024.33 10.767h5.384A13.999 13.999 0 0131.167 17zM25.5 17A8.5 8.5 0 1117 8.5a8.51 8.51 0 018.5 8.5zm7.367-7.367h-3.4v-6.8h3.4v6.8z" fill="#5C6D7D"></path>
      <path d="M24.334 16.352c-.007-.08-.017-.159-.026-.238-.016-.13-.037-.26-.056-.388a7.142 7.142 0 00-.097-.46c-.026-.108-.051-.216-.082-.324l-.006-.017a7.29 7.29 0 00-.208-.6l-.03-.083a7.41 7.41 0 00-.278-.6c-.008-.017-.015-.034-.024-.05a7.916 7.916 0 00-.346-.59c-.006-.009-.011-.019-.018-.028a7.536 7.536 0 00-.393-.543c-.014-.015-.023-.03-.035-.044a7.567 7.567 0 00-.404-.457c-.028-.029-.053-.06-.08-.088a7.207 7.207 0 00-.374-.348c-.056-.05-.107-.102-.165-.15-.1-.083-.205-.158-.31-.236-.09-.068-.177-.14-.27-.203-.083-.057-.17-.104-.254-.157-.113-.07-.22-.143-.335-.206l-.026-.013c-.045-.025-.094-.045-.14-.068a7.247 7.247 0 00-.493-.238 3.775 3.775 0 00-.218-.083c-.147-.056-.294-.113-.444-.162-.086-.027-.174-.047-.261-.071a6.367 6.367 0 00-.427-.11c-.097-.021-.197-.034-.295-.051-.136-.023-.272-.047-.409-.062-.113-.013-.23-.018-.346-.026a6.75 6.75 0 00-.365-.018c-.04 0-.078-.006-.119-.006-.107 0-.213.011-.32.016-.084.004-.17.006-.255.013a7.173 7.173 0 00-.556.067c-.041.006-.083.011-.125.019a7.544 7.544 0 00-.631.14c-.014.003-.027.004-.04.008l-.02.006a7.293 7.293 0 00-.65.213l-.057.02a7.38 7.38 0 00-.624.275c-.017.01-.035.017-.052.026-.199.1-.391.211-.579.329-.021.014-.043.025-.064.04a7.207 7.207 0 00-.513.363c-.031.024-.063.045-.093.07-.149.117-.29.243-.429.372-.044.04-.09.079-.132.12a7.443 7.443 0 00-.336.356c-.056.063-.113.123-.17.188a5.86 5.86 0 00-.249.324c-.065.087-.134.17-.196.262-.069.1-.128.206-.192.31-.063.104-.122.187-.176.283l-.01.022a7.36 7.36 0 00-.353.751c-.03.071-.052.142-.079.214a7.233 7.233 0 00-.378 1.474c-.011.076-.025.15-.034.227a7.373 7.373 0 00-.054.858c0 .216.013.432.033.648.007.08.017.159.026.238a7.19 7.19 0 00.154.847c.025.109.05.217.081.325l.006.017c.06.204.132.404.209.6.01.028.018.057.029.082.084.207.178.408.28.604l.02.045c.109.205.225.403.35.596l.015.023c.124.19.257.372.396.549l.028.036c.13.161.268.315.41.464.025.027.049.057.075.082.12.124.25.24.38.355.053.047.103.097.157.143.103.086.213.163.32.244.087.065.17.134.261.195.09.061.175.108.263.162.108.068.214.14.327.201.007.005.015.007.022.011.243.132.494.25.75.353.071.029.143.052.214.078a7.244 7.244 0 001.475.378c.075.012.15.026.226.035.285.035.572.054.86.056.216 0 .432-.014.648-.033.08-.007.159-.017.238-.026.13-.016.26-.037.388-.056.155-.028.308-.06.46-.097.107-.026.215-.05.322-.082l.017-.006c.204-.06.404-.13.6-.208.028-.01.057-.019.084-.03.204-.083.404-.176.599-.277l.05-.024c.202-.106.398-.221.587-.345.011-.006.022-.012.033-.02.185-.12.363-.251.536-.388l.05-.038c.155-.125.303-.259.448-.396.032-.03.066-.057.098-.09.117-.113.226-.238.336-.36.054-.057.11-.114.16-.177.08-.095.15-.195.227-.294.077-.099.148-.188.215-.287.05-.073.092-.15.139-.227.075-.12.155-.238.227-.363l.01-.023c.132-.243.25-.493.352-.75.03-.07.052-.142.079-.214.076-.197.14-.399.196-.604a7.59 7.59 0 00.182-.871c.011-.075.025-.148.034-.224.034-.284.051-.57.052-.857 0-.216-.014-.432-.033-.648zm-3.91-2.001c.025-.033.046-.068.07-.101.04-.057.08-.109.113-.167.024-.039.044-.08.066-.122.03-.056.062-.107.088-.163.02-.043.036-.089.054-.133.023-.057.047-.11.067-.17.015-.045.025-.092.038-.138.016-.056.035-.113.048-.174.01-.047.015-.095.022-.142.01-.06.022-.118.028-.178.004-.05.004-.097.006-.146.003-.06.008-.12.007-.18 0-.049-.007-.098-.01-.148-.004-.049-.005-.103-.011-.154.017.014.032.03.048.045a6.203 6.203 0 01.599.592c.353.398.654.839.896 1.312l.037.075c.11.224.206.454.288.69.007.015.015.03.018.046l-.001.007-.568.751a1.708 1.708 0 01-1.36.68h-2.363c-.01-.027-.023-.052-.033-.08l-.012-.026c-.008-.02-.015-.04-.025-.06l1.672-1.671c.077-.078.15-.16.217-.245zm-3.551-3.578c.162-.004.323 0 .485.012.08.004.163.004.243.012.227.021.452.055.675.102.06.013.118.031.177.046.17.04.34.086.506.142.076.025.15.056.227.082.146.056.291.116.434.182.044.02.088.042.132.064l.134.937a1.706 1.706 0 01-.48 1.442l-1.672 1.671c-.02-.01-.04-.016-.06-.025l-.027-.01c-.027-.012-.052-.024-.08-.034v-2.663a2.833 2.833 0 00-.047-.492c-.008-.046-.018-.09-.028-.135a2.818 2.818 0 00-.108-.364c-.014-.037-.024-.073-.039-.109a2.851 2.851 0 00-.22-.421c-.017-.028-.039-.053-.056-.081a2.781 2.781 0 00-.24-.302c-.015-.017-.026-.036-.042-.053.027 0 .056-.003.086-.003zm-4.596 2.17v.002c.165-.191.342-.373.53-.543.029-.026.056-.056.087-.08.43-.376.91-.692 1.424-.94l.027-.012c.265-.126.54-.233.82-.32l.329.165c.577.286.941.875.94 1.519v2.663c-.028.01-.053.022-.08.033l-.027.012-.06.024-1.671-1.67a2.827 2.827 0 00-.397-.324l-.066-.045a2.828 2.828 0 00-.43-.227l-.078-.03a2.869 2.869 0 00-.478-.146l-.027-.004a2.854 2.854 0 00-.492-.048c-.014 0-.028-.005-.042-.005h-.028c-.073 0-.146.007-.219.014-.034 0-.07 0-.104.007l.042-.044zm-1.384 4.475v.004c-.033.037-.069.074-.1.113a6.248 6.248 0 01-.026-.535c0-.227.013-.454.039-.68.006-.057.018-.113.025-.167.024-.17.05-.34.088-.503.015-.069.035-.134.052-.202a6.365 6.365 0 01.213-.67c.05-.13.105-.26.163-.387l.068-.14.937-.134a1.703 1.703 0 011.442.48l1.671 1.671c-.009.02-.015.04-.024.057l-.013.03c-.01.026-.023.051-.032.078h-2.363c-.11 0-.219.006-.327.019-.038.004-.075.014-.114.02-.07.011-.14.02-.208.037-.043.01-.084.025-.127.038-.061.017-.124.033-.184.056-.043.016-.085.037-.128.057-.056.024-.113.045-.17.073-.043.021-.084.048-.127.071-.051.03-.104.057-.154.089-.05.031-.08.056-.122.088-.04.03-.095.066-.14.103-.045.038-.074.068-.114.102a2.03 2.03 0 00-.127.12c-.04.041-.065.073-.098.111zm2.683 2.232v.004c-.02.026-.038.056-.057.082-.044.061-.09.121-.128.185-.021.034-.038.07-.057.104a2.204 2.204 0 00-.097.181c-.019.04-.033.08-.05.12-.024.06-.05.12-.071.181-.014.042-.024.086-.036.13-.017.06-.037.12-.05.182-.01.046-.014.091-.022.137-.01.061-.021.122-.027.183-.005.048-.005.096-.007.144 0 .061-.008.121-.007.181 0 .05.007.1.01.15.004.049.005.102.011.153l-.044-.04a6.291 6.291 0 01-.601-.596 6.327 6.327 0 01-.895-1.313c-.013-.023-.024-.048-.036-.073a6.224 6.224 0 01-.29-.69l-.017-.046.568-.762a1.71 1.71 0 011.36-.68h2.363l.032.078.013.03c.008.018.015.039.024.056l-1.67 1.671a2.88 2.88 0 00-.219.248zm3.855 3.561l-.002.004a5.94 5.94 0 01-.627.012 6.158 6.158 0 01-.843-.084c-.05-.008-.1-.013-.15-.023a6.212 6.212 0 01-.737-.191c-.05-.016-.098-.037-.148-.057a6.392 6.392 0 01-.676-.286l-.133-.94a1.707 1.707 0 01.48-1.442l1.672-1.67.06.025.027.01c.026.011.052.024.08.033v2.365c0 .109.006.218.018.327.005.039.015.075.02.113.012.07.021.14.038.208.01.044.025.086.038.129.017.061.033.122.056.183.016.043.037.085.057.129.024.056.046.113.073.17.022.043.048.084.071.127.03.051.057.104.089.154.032.05.057.082.088.123.032.04.067.094.103.14.036.044.069.075.103.113.035.037.077.086.119.126.041.04.076.067.113.1.037.034.074.069.113.1-.034 0-.069 0-.102.002zm.091-5.99a.622.622 0 01-.069.102.573.573 0 01-.13.131.623.623 0 01-.104.07.566.566 0 01-.438 0 .623.623 0 01-.104-.07.55.55 0 01-.121-.118.577.577 0 01-.079-.113.567.567 0 010-.439.584.584 0 01.079-.119v.001a.55.55 0 01.121-.118.617.617 0 01.104-.07.566.566 0 01.438 0c.037.02.071.043.103.07.05.036.095.08.131.13a.61.61 0 01.07.104.567.567 0 010 .438zm4.196 3.84l-.001.004a6.203 6.203 0 01-.592.599c-.398.35-.837.649-1.31.89l-.075.036c-.223.11-.453.206-.689.288l-.046.017-.758-.568a1.708 1.708 0 01-.68-1.36v-2.363c.027-.01.052-.023.079-.033l.027-.012c.02-.008.04-.015.06-.025l1.671 1.672c.122.12.255.228.397.324l.062.043a2.819 2.819 0 00.508.259c.153.06.311.109.473.142a2.795 2.795 0 00.546.057h.033c.113 0 .227-.007.34-.02-.014.018-.03.034-.045.05zm1.475-3.374c-.006.056-.018.113-.026.17-.023.17-.05.335-.087.5-.015.069-.035.136-.052.204a6.17 6.17 0 01-.13.44c-.026.076-.056.152-.084.226-.05.13-.104.258-.162.385-.022.048-.046.094-.068.141l-.937.134a1.71 1.71 0 01-1.443-.48l-1.67-1.672.024-.06.012-.027c.01-.026.023-.052.032-.08h2.365c.109 0 .218-.006.327-.018.039-.005.075-.015.113-.02.07-.012.14-.021.208-.038.044-.01.086-.025.129-.038.061-.017.122-.033.183-.056.043-.016.085-.037.129-.057.056-.024.113-.046.17-.073.043-.022.084-.048.127-.072.051-.028.104-.056.154-.088.05-.032.082-.056.123-.088.04-.032.094-.067.14-.103.044-.036.075-.068.113-.103.037-.035.086-.076.126-.118.04-.042.065-.075.098-.114v.006c.032-.038.067-.074.098-.113a6.1 6.1 0 01.027.532c0 .227-.014.454-.039.68z" fill="#E67861"></path>
      <path d="M5.667 4.533H4.533v1.134h1.134V4.533zm23.8 23.8h-1.134v1.134h1.134v-1.134zM3.967 17H5.1C5.107 10.43 10.43 5.107 17 5.1V3.967C9.805 3.975 3.975 9.805 3.967 17zm15.3-13.033h-1.134V5.1h1.134V3.967z" fill="#5C6D7D"></path>
    </g>
    <defs>
      <filter id="filter0_d" x="-35" y="-30" width="411" height="609" filterUnits="userSpaceOnUse" color-interpolation-filters="sRGB">
        <feFlood flood-opacity="0" result="BackgroundImageFix"></feFlood>
        <feColorMatrix in="SourceAlpha" values="0 0 0 0 0 0 0 0 0 0 0 0 0 0 0 0 0 0 127 0" result="hardAlpha"></feColorMatrix>
        <feOffset dy="4"></feOffset>
        <feGaussianBlur stdDeviation="10"></feGaussianBlur>
        <feColorMatrix values="0 0 0 0 0 0 0 0 0 0 0 0 0 0 0 0 0 0 0.25 0"></feColorMatrix>
        <feBlend in2="BackgroundImageFix" result="effect1_dropShadow"></feBlend>
        <feBlend in="SourceGraphic" in2="effect1_dropShadow" result="shape"></feBlend>
      </filter>
    </defs>
  </symbol>
  <symbol  xmlns="http://www.w3.org/2000/svg" viewBox="0 0 34 34" id="category-2">
    <path fill="#E5E5E5" d="M0 0h34v34H0z"></path>
    <g filter="url(#filter0_d)">
      <path d="M-15-70h371v559c0 5.523-4.477 10-10 10H-5c-5.523 0-10-4.477-10-10V-70z" fill="#fff"></path>
      <g clip-path="url(#clip0)">
        <path fill-rule="evenodd" clip-rule="evenodd" d="M20.489 8.69a1.325 1.325 0 011.963-.021l5.51 5.936c.046.05.146.16.204.324.098.28.1.662.073.963a3.14 3.14 0 01-.084.491c-.039.15-.1.326-.2.476a1.196 1.196 0 01-.148.176l-.023.023a1.034 1.034 0 00-.03.032h-.002L16.765 30.123l-.011.016-.016.022-.021.03c-.03.044-.087.125-.17.2-.228.21-.56.315-.804.369a2.58 2.58 0 01-.81.057 1.016 1.016 0 01-.524-.235l-6.662-5.45a1.325 1.325 0 01-.152-1.905L20.489 8.691zm1.13.751a.19.19 0 00-.28.003L8.444 23.981a.19.19 0 00.022.272l6.65 5.44a1.658 1.658 0 00.598-.108.514.514 0 00.062-.03l.008-.012a.602.602 0 00.018-.025l.024-.035c.018-.025.041-.058.07-.092l10.988-13.033c.026-.03.05-.057.07-.076l.026-.027.005-.005a1.03 1.03 0 00.029-.029.69.69 0 00.042-.124 2.235 2.235 0 00.06-.632 1.102 1.102 0 00-.012-.115l-5.485-5.91zm5.442 13.686l1.075-.365.839 2.475 2.612.402-.172 1.123-3.294-.507-1.06-3.128zm-1.701 2.347l1.075-.364.652 1.92 3.234.624-.215 1.115-3.883-.748-.863-2.547zm-1.812 2.25l1.064-.397.733 1.967h3.733v1.135h-4.521l-1.009-2.705zm2.12-26.634a.568.568 0 01.049.801L1.637 29.076a.568.568 0 01-.85-.753l24.08-27.185a.568.568 0 01.801-.049z" fill="#5C6D7D"></path>
        <path fill-rule="evenodd" clip-rule="evenodd" d="M20.058 18.603a2.33 2.33 0 00-3.197-.778 2.33 2.33 0 00-.777 3.197 2.33 2.33 0 003.197.778 2.33 2.33 0 00.777-3.197zm-3.787-1.748a3.466 3.466 0 014.758 1.157 3.466 3.466 0 01-1.158 4.758 3.466 3.466 0 01-4.758-1.157 3.466 3.466 0 011.158-4.758z" fill="#E67861"></path>
        <path fill-rule="evenodd" clip-rule="evenodd" d="M26.832 19.237c.743-.869 2.163-.453 2.32.68l.266 1.927-1.125.156-.266-1.928a.19.19 0 00-.332-.097l-8.14 9.52a.19.19 0 00.166.312l2.628-.304.13 1.128-2.627.304c-1.197.138-1.942-1.262-1.16-2.177l8.14-9.521zM4.323 5.901L7.14 7.234l.486-1.027L4.81 4.875l-.007-.004a.902.902 0 01-.024-.014l-.01-.006a1.06 1.06 0 00-1.414.206L1.566 7.18l-.003.004a1.06 1.06 0 00.121 1.465l2.227 2.32.82-.785-2.242-2.337 1.7-2.019.005.003c.029.017.075.045.13.07z" fill="#5C6D7D"></path>
        <path fill-rule="evenodd" clip-rule="evenodd" d="M28.824 21.017l2.526 2.164.598 4.014-4.188 5.215h-4.5l-1.649-2.864 7.213-8.53zm.13 1.606l-5.96 7.047.922 1.604h3.3l3.535-4.402-.462-3.104-1.336-1.145z" fill="#5C6D7D"></path>
        <path d="M30.177 32.683l-.872-.728 2.718-3.256.871.728-2.717 3.256zM.72 7.39l-.871-.727 2.717-3.255.872.727L.72 7.391z" fill="#E67861"></path>
        <path fill-rule="evenodd" clip-rule="evenodd" d="M15.423 3.364l3.07 3.883L6.74 20.907l-.798.798-3.52-.695-1.24-4.531 1.761-.328-.077-3.614 2.033-.154.076-2.615 2.242-.157.65-3.137H10l.552-2.358 4.87-.752zm-4.257 3.11h2.873l-.227 4.473 3.21-3.73-2.08-2.63-3.459.535-.317 1.352zm1.53 5.769l-.087-.004.235-4.629H8.792l-.4 1.93 2.577-.142.376 4.415 1.351-1.57zm-2.303 2.677l-.093.008-.37-4.335-2.209.12-1.64.116-.043 1.47 1.946-.141.975 4.429 1.434-1.667zm-2.36 2.743l-.947-4.301-1.591.115h-.002l-1.468.111.049 2.32 1.82-.428.758 3.788 1.38-1.605zm-2.327 2.672l-.696-3.48-1.372.322-1.034.193.728 2.662 2.236.441.138-.138z" fill="#5C6D7D"></path>
      </g>
    </g>
    <defs>
      <clipPath id="clip0">
        <path fill="#fff" d="M0 0h34v34H0z"></path>
      </clipPath>
      <filter id="filter0_d" x="-35" y="-86" width="411" height="609" filterUnits="userSpaceOnUse" color-interpolation-filters="sRGB">
        <feFlood flood-opacity="0" result="BackgroundImageFix"></feFlood>
        <feColorMatrix in="SourceAlpha" values="0 0 0 0 0 0 0 0 0 0 0 0 0 0 0 0 0 0 127 0" result="hardAlpha"></feColorMatrix>
        <feOffset dy="4"></feOffset>
        <feGaussianBlur stdDeviation="10"></feGaussianBlur>
        <feColorMatrix values="0 0 0 0 0 0 0 0 0 0 0 0 0 0 0 0 0 0 0.25 0"></feColorMatrix>
        <feBlend in2="BackgroundImageFix" result="effect1_dropShadow"></feBlend>
        <feBlend in="SourceGraphic" in2="effect1_dropShadow" result="shape"></feBlend>
      </filter>
    </defs>
  </symbol>
   <symbol xmlns="http://www.w3.org/2000/svg" viewBox="0 0 28 28" id="category-3">
    <path fill="#E5E5E5" d="M0 0h28v28H0z"></path>
    <g filter="url(#filter0_d)">
      <path d="M-19-132h371v559c0 5.523-4.477 10-10 10H-9c-5.523 0-10-4.477-10-10v-559z" fill="#fff"></path>
      <g clip-path="url(#clip0)">
        <path d="M16.9-1.304l1.918 3.562-1.513-.42L15.9-.767a2.115 2.115 0 00-3.726 0l-1.4 2.607-1.518.42 1.918-3.563a3.25 3.25 0 015.727 0zm0 30.576l1.918-3.562-1.513.42-1.405 2.606a2.115 2.115 0 01-3.726 0l-1.4-2.607-1.518-.42 1.918 3.563a3.25 3.25 0 005.727 0z" fill="#5C6D7D"></path>
        <path d="M14.045 5.69a1.824 1.824 0 100-3.65 1.824 1.824 0 000 3.65zm0-2.433a.608.608 0 110 1.216.608.608 0 010-1.216z" fill="#5C6D7D"></path>
        <path d="M14.045 22.235a1.825 1.825 0 100 3.65 1.825 1.825 0 000-3.65zm.608 1.824a.608.608 0 11-1.217 0 .608.608 0 011.217 0z" fill="#E67861"></path>
        <path fill-rule="evenodd" clip-rule="evenodd" d="M14.045 22.84a1.219 1.219 0 100 2.438 1.219 1.219 0 000-2.437zm1.214 1.22a1.214 1.214 0 11-2.429 0 1.214 1.214 0 012.429 0zm-2.228-1.518a1.825 1.825 0 112.028 3.035 1.825 1.825 0 01-2.028-3.035zm1.52 1.855a.608.608 0 10-1.012-.676.608.608 0 001.012.676zm-.513-3.847a6.437 6.437 0 100-12.873 6.437 6.437 0 000 12.873zm0 1.136a7.572 7.572 0 100-15.145 7.572 7.572 0 000 15.145z" fill="#E67861"></path>
        <path d="M26.871 5.198l-1.163 3.875-.773-1.366.85-2.837a2.115 2.115 0 00-2.636-2.635l-2.833.853-1.37-.776 3.876-1.163a3.251 3.251 0 014.049 4.05zM5.25 26.82l3.874-1.164-1.365-.773-2.837.85a2.116 2.116 0 01-2.635-2.635l.853-2.834-.776-1.37-1.163 3.876a3.251 3.251 0 004.05 4.05z" fill="#5C6D7D"></path>
        <path d="M20.036 8.177a1.825 1.825 0 102.58-2.581 1.825 1.825 0 00-2.58 2.58zm1.72-1.72a.609.609 0 11-.86.86.609.609 0 01.86-.86z" fill="#E67861"></path>
        <path fill-rule="evenodd" clip-rule="evenodd" d="M20.465 7.748a1.219 1.219 0 101.723-1.723 1.219 1.219 0 00-1.723 1.723zm1.72-1.72a1.213 1.213 0 11-1.716 1.716 1.213 1.213 0 011.716-1.716zM20.97 8.676a1.825 1.825 0 11.712-3.58 1.825 1.825 0 01-.712 3.58zm.952-1.908a.608.608 0 10-1.193.237.608.608 0 001.193-.237z" fill="#E67861"></path>
        <path d="M8.283 19.93a1.824 1.824 0 10-2.58 2.58 1.824 1.824 0 002.58-2.58zm-.86 1.72a.607.607 0 11-.859-.859.607.607 0 01.86.859z" fill="#5C6D7D"></path>
        <path d="M3.847 24.945l-.803-.804 2.999-2.998.803.803-2.999 2.999zm18.976 1.875l-3.875-1.164 1.366-.773 2.837.85a2.115 2.115 0 002.635-2.635l-.853-2.834.776-1.37 1.163 3.876a3.251 3.251 0 01-4.05 4.05zM1.202 5.198l1.163 3.875.773-1.366-.85-2.837a2.115 2.115 0 012.635-2.635l2.834.853 1.37-.776L5.251 1.15a3.251 3.251 0 00-4.05 4.05z" fill="#5C6D7D"></path>
        <path d="M19.844 19.985a1.825 1.825 0 102.58 2.58 1.825 1.825 0 00-2.58-2.58zm1.72 1.72a.608.608 0 11-.86-.86.608.608 0 01.86.86z" fill="#5C6D7D"></path>
        <path d="M8.091 8.232a1.824 1.824 0 10-2.58-2.58 1.824 1.824 0 002.58 2.58zm-1.72-.86a.608.608 0 11.86-.86.608.608 0 01-.86.86z" fill="#E67861"></path>
        <path fill-rule="evenodd" clip-rule="evenodd" d="M7.663 7.803A1.219 1.219 0 105.939 6.08a1.219 1.219 0 001.724 1.723zM5.943 7.8a1.214 1.214 0 111.716-1.717A1.214 1.214 0 015.943 7.8zm2.648-.503a1.824 1.824 0 11-3.58-.711 1.824 1.824 0 013.58.711zM6.205 7.06a.608.608 0 101.193-.237.608.608 0 00-1.193.237z" fill="#E67861"></path>
        <path d="M21.282 22.001l.803-.803 2.998 2.998-.803.803-2.998-2.998zm8.043-5.153l-3.562 1.917.42-1.512 2.606-1.405a2.115 2.115 0 000-3.727l-2.607-1.4-.42-1.518 3.563 1.918a3.252 3.252 0 010 5.727zm-30.576 0l3.562 1.917-.42-1.513-2.606-1.404a2.115 2.115 0 010-3.727l2.607-1.4.42-1.518-3.563 1.918a3.25 3.25 0 000 5.727z" fill="#5C6D7D"></path>
        <path d="M22.387 14.12a1.824 1.824 0 103.648 0 1.824 1.824 0 00-3.648 0zm2.432 0a.608.608 0 11-1.217 0 .608.608 0 011.217 0zm-19.054 0a1.824 1.824 0 10-3.649 0 1.824 1.824 0 003.649 0zm-1.824.609a.608.608 0 110-1.217.608.608 0 010 1.217z" fill="#5C6D7D"></path>
        <path d="M-.918 14.53v-1.136h4.24v1.136h-4.24zm25.747 0v-1.136h4.24v1.136h-4.24z" fill="#5C6D7D"></path>
        <path fill-rule="evenodd" clip-rule="evenodd" d="M14.038 1.581C7.2 1.581 1.657 7.125 1.657 13.962c0 6.838 5.543 12.381 12.38 12.381 6.839 0 12.382-5.543 12.382-12.38 0-6.838-5.543-12.382-12.381-12.382zM.52 13.962C.521 6.497 6.573.446 14.038.446s13.517 6.051 13.517 13.516S21.503 27.48 14.038 27.48.52 21.427.52 13.962z" fill="#5C6D7D"></path>
        <path d="M13.508-1.031h1.136v4.24h-1.136v-4.24z" fill="#5C6D7D"></path>
      </g>
    </g>
    <defs>
      <clipPath id="clip0">
        <path fill="#fff" transform="translate(-3 -3)" d="M0 0h34v34H0z"></path>
      </clipPath>
      <filter id="filter0_d" x="-39" y="-148" width="411" height="609" filterUnits="userSpaceOnUse" color-interpolation-filters="sRGB">
        <feFlood flood-opacity="0" result="BackgroundImageFix"></feFlood>
        <feColorMatrix in="SourceAlpha" values="0 0 0 0 0 0 0 0 0 0 0 0 0 0 0 0 0 0 127 0" result="hardAlpha"></feColorMatrix>
        <feOffset dy="4"></feOffset>
        <feGaussianBlur stdDeviation="10"></feGaussianBlur>
        <feColorMatrix values="0 0 0 0 0 0 0 0 0 0 0 0 0 0 0 0 0 0 0.25 0"></feColorMatrix>
        <feBlend in2="BackgroundImageFix" result="effect1_dropShadow"></feBlend>
        <feBlend in="SourceGraphic" in2="effect1_dropShadow" result="shape"></feBlend>
      </filter>
    </defs>
  </symbol>
   <symbol xmlns="http://www.w3.org/2000/svg" viewBox="0 0 34 34" id="category-4">
    <path fill="#E5E5E5" d="M0 0h34v34H0z"></path>
    <g filter="url(#filter0_d)">
      <path d="M-15-184h371v559c0 5.523-4.477 10-10 10H-5c-5.523 0-10-4.477-10-10v-559z" fill="#fff"></path>
      <g clip-path="url(#clip0)" fill-rule="evenodd" clip-rule="evenodd">
        <path d="M15.13 27.076l-.12 1.13-7.168-.755a1.173 1.173 0 01-1.14-1.174v-1.666c0-.637.507-1.155 1.14-1.173l7.169-.754.119 1.13-7.224.76h-.03a.037.037 0 00-.037.037v1.666c0 .022.016.038.037.038h.03l7.224.76z" fill="#5C6D7D"></path>
        <path d="M1.136 23.42v4.197l5.526.635v-5.466l-5.526.635zm6.056-1.839c.335 0 .606.271.606.606v6.664c0 .335-.27.606-.606.606l-6.586-.758A.605.605 0 010 28.093v-5.149c0-.335.27-.605.606-.605l6.586-.758zm18.295-3.559c-4.077 0-7.395 3.319-7.395 7.396s3.318 7.396 7.395 7.396 7.396-3.319 7.396-7.396-3.319-7.396-7.396-7.396zm0-1.135c-4.704 0-8.531 3.827-8.531 8.531 0 4.704 3.827 8.532 8.531 8.532 4.705 0 8.532-3.828 8.532-8.532 0-4.704-3.827-8.531-8.532-8.531z" fill="#5C6D7D"></path>
        <path d="M26.255 33.382a.568.568 0 01-.568.568h-2.332c-4.966 0-9.1-3.464-9.1-8.532s4.134-8.531 9.1-8.531h2.191a.568.568 0 110 1.135h-2.191c-4.444 0-7.964 3.056-7.964 7.396s3.52 7.396 7.964 7.396h2.332c.313 0 .568.254.568.568z" fill="#5C6D7D"></path>
        <path d="M25.57 21.041a4.383 4.383 0 00-4.377 4.377 4.383 4.383 0 004.376 4.377 4.383 4.383 0 004.377-4.377 4.383 4.383 0 00-4.377-4.377zm0-1.136a5.519 5.519 0 00-5.513 5.513 5.519 5.519 0 005.512 5.513 5.519 5.519 0 005.513-5.513 5.519 5.519 0 00-5.513-5.513z" fill="#5C6D7D"></path>
        <path d="M26.38 25.418a.812.812 0 00-.81-.81.812.812 0 00-.81.81.811.811 0 001.62 0zm-.81-1.946c1.073 0 1.945.872 1.945 1.946a1.948 1.948 0 01-1.946 1.946 1.948 1.948 0 01-1.946-1.946c0-1.073.873-1.946 1.946-1.946zM4.612 25.494a.812.812 0 00-.81-.81.812.812 0 00-.81.81.811.811 0 001.62 0zm-.81-1.946c1.073 0 1.945.872 1.945 1.946a1.948 1.948 0 01-1.946 1.946 1.948 1.948 0 01-1.946-1.946c0-1.074.873-1.946 1.946-1.946z" fill="#E67861"></path>
        <path d="M18.89 10.19l.118 1.129 7.17-.755a1.173 1.173 0 001.138-1.173V7.725c0-.637-.506-1.155-1.139-1.173l-7.169-.755-.119 1.13 7.224.76h.03c.02 0 .037.017.037.038V9.39a.037.037 0 01-.037.038h-.03l-7.224.76z" fill="#5C6D7D"></path>
        <path d="M32.883 6.534v4.196l-5.526.636V5.899l5.526.635zm-6.056-1.84a.605.605 0 00-.606.607v6.663c0 .335.27.606.606.606l6.586-.757c.335 0 .606-.27.606-.606v-5.15a.605.605 0 00-.606-.605l-6.586-.757zM8.532 1.136c4.077 0 7.395 3.319 7.395 7.396 0 4.076-3.318 7.395-7.395 7.395s-7.396-3.319-7.396-7.395c0-4.077 3.319-7.396 7.396-7.396zm0-1.136c4.704 0 8.531 3.827 8.531 8.532 0 4.704-3.827 8.531-8.531 8.531C3.827 17.063 0 13.236 0 8.532 0 3.827 3.827 0 8.532 0z" fill="#5C6D7D"></path>
        <path d="M7.764 16.495c0 .314.255.568.568.568h2.332c4.966 0 9.1-3.463 9.1-8.531 0-5.069-4.134-8.532-9.1-8.532h-2.19a.568.568 0 100 1.136h2.191c4.444 0 7.964 3.055 7.964 7.396 0 4.34-3.52 7.395-7.963 7.395H8.332a.568.568 0 00-.568.568z" fill="#5C6D7D"></path>
        <path d="M8.45 4.155a4.383 4.383 0 014.377 4.376 4.383 4.383 0 01-4.377 4.377 4.383 4.383 0 01-4.377-4.377A4.383 4.383 0 018.45 4.155zm0-1.136a5.519 5.519 0 015.512 5.512 5.519 5.519 0 01-5.512 5.513 5.519 5.519 0 01-5.513-5.513A5.519 5.519 0 018.45 3.02z" fill="#5C6D7D"></path>
        <path d="M7.64 8.532a.81.81 0 11.81.81.812.812 0 01-.81-.81zm.81-1.947a1.948 1.948 0 00-1.946 1.947c0 1.073.872 1.946 1.946 1.946a1.948 1.948 0 001.946-1.946A1.948 1.948 0 008.45 6.585zm20.957 2.022a.811.811 0 11.81.81.812.812 0 01-.81-.81zm.81-1.946a1.948 1.948 0 00-1.945 1.946c0 1.074.872 1.946 1.946 1.946a1.948 1.948 0 001.946-1.946 1.948 1.948 0 00-1.946-1.946z" fill="#E67861"></path>
      </g>
    </g>
    <defs>
      <clipPath id="clip0">
        <path fill="#fff" d="M0 0h34v34H0z"></path>
      </clipPath>
      <filter id="filter0_d" x="-35" y="-200" width="411" height="609" filterUnits="userSpaceOnUse" color-interpolation-filters="sRGB">
        <feFlood flood-opacity="0" result="BackgroundImageFix"></feFlood>
        <feColorMatrix in="SourceAlpha" values="0 0 0 0 0 0 0 0 0 0 0 0 0 0 0 0 0 0 127 0" result="hardAlpha"></feColorMatrix>
        <feOffset dy="4"></feOffset>
        <feGaussianBlur stdDeviation="10"></feGaussianBlur>
        <feColorMatrix values="0 0 0 0 0 0 0 0 0 0 0 0 0 0 0 0 0 0 0.25 0"></feColorMatrix>
        <feBlend in2="BackgroundImageFix" result="effect1_dropShadow"></feBlend>
        <feBlend in="SourceGraphic" in2="effect1_dropShadow" result="shape"></feBlend>
      </filter>
    </defs>
  </symbol>
   <symbol xmlns="http://www.w3.org/2000/svg" viewBox="0 0 34 34" id="category-5">
    <path fill="#E5E5E5" d="M0 0h34v34H0z"></path>
    <g filter="url(#filter0_d)">
      <path d="M-15-239h371v559c0 5.523-4.477 10-10 10H-5c-5.523 0-10-4.477-10-10v-559z" fill="#fff"></path>
      <g clip-path="url(#clip0)">
        <path d="M21.248 18.207v-1.134h-1.135v1.134h1.135zM9.937 12.193l-1.398-.831-.568.982 1.399.832.567-.983zM8.926 13.97l-1.399-.831-.567.983 1.399.831.567-.983zm-.983 1.816l-1.399-.831-.567.982 1.398.832.568-.983zm-1.286 1.815l-1.4-.831-.567.983 1.4.831.567-.983zm-1.06 1.816L4.2 18.586l-.568.982 1.399.832.567-.983zm22.762-6.505v-1.135h-1.135v1.135h1.135z" fill="#5C6D7D"></path>
        <path fill-rule="evenodd" clip-rule="evenodd" d="M27.899 22.339l-5.709 9.719c-.937 1.596-3.013 2.142-4.637 1.221L8.7 28.254a3.306 3.306 0 01-1.243-4.557l5.712-9.724 5.96-9.716c.955-1.557 3.002-2.076 4.604-1.167l8.57 4.863a3.306 3.306 0 011.258 4.53l-5.662 9.856zm-6.689 9.163l5.706-9.715 5.66-9.85a2.204 2.204 0 00-.84-3.02l-8.569-4.864a2.286 2.286 0 00-3.07.778l-5.954 9.707-5.706 9.715a2.204 2.204 0 00.829 3.038l8.853 5.025c1.082.614 2.466.25 3.091-.814z" fill="#5C6D7D"></path>
        <path fill-rule="evenodd" clip-rule="evenodd" d="M16.369 31.97a.571.571 0 01-.773.204L4.815 26.056a2.755 2.755 0 01-1.012-3.837l12.366-20.29C16.963.626 18.673.19 20.01.949l5.595 3.176c.27.153.363.493.207.76a.571.571 0 01-.773.203l-5.595-3.175a1.714 1.714 0 00-2.304.587L4.773 22.79c-.487.8-.213 1.836.608 2.302l10.78 6.119a.552.552 0 01.208.76z" fill="#5C6D7D"></path>
        <path fill-rule="evenodd" clip-rule="evenodd" d="M10.802 26.088L13.06 27.4l-.57.981-2.258-1.312a2.08 2.08 0 01-.757-2.839l2.29-3.965.987-1.533.954.615-.973 1.51-2.275 3.94a.946.946 0 00.344 1.29z" fill="#5C6D7D"></path>
        <path fill-rule="evenodd" clip-rule="evenodd" d="M28.32 17.585l-4.312 7.414-.981-.57 4.312-7.415.98.57zM23.252 6.378l-.851-.45a.946.946 0 00-1.259.36l-3.716 6.38-.98-.571 3.716-6.38a2.08 2.08 0 012.769-.792l.851.45-.53 1.003z" fill="#E67861"></path>
        <path fill-rule="evenodd" clip-rule="evenodd" d="M21.533 26.866l-2.067 3.58-5.031-2.181 2.693-4.665 4.405 3.266zm-4.267-4.576a.599.599 0 00-.818.22l-3.298 5.71a.599.599 0 00.22.82l6.02 2.61a.599.599 0 00.819-.22l2.548-4.413a.599.599 0 00-.22-.819l-5.27-3.908zM5.802 6.16L8.95 1.076a.599.599 0 01.825-.192l5.779 2.81a.599.599 0 01.192.826l-3.79 6.355a.599.599 0 01-.825.192L5.994 6.985a.599.599 0 01-.192-.826zm5.502 3.595l3.173-5.322-4.82-2.344L7.018 6.35l4.285 3.405z" fill="#5C6D7D"></path>
        <path fill-rule="evenodd" clip-rule="evenodd" d="M21.128 20.241l-6.467-2.882 2.726-4.741 5.8 4.301-2.059 3.322zm3.233-3.06a.734.734 0 00-.27-1.004l-6.457-4.789a.734.734 0 00-1.004.269l-3.175 5.523a.734.734 0 00.27 1.004l7.19 3.205c.352.203.8.082 1.004-.27l2.442-3.939zm4.029-2.311l-6.466-2.882 2.725-4.742 5.801 4.302-2.06 3.322zm3.233-3.06a.734.734 0 00-.269-1.004l-6.458-4.79a.734.734 0 00-1.003.27l-3.175 5.523a.734.734 0 00.269 1.004l7.19 3.204a.734.734 0 001.004-.269l2.442-3.939zM19.188 27.968a.798.798 0 01-1.088.292.798.798 0 01-.291-1.088.798.798 0 011.088-.292c.38.22.51.709.291 1.088zm-1.655 1.275a1.933 1.933 0 002.638-.707 1.933 1.933 0 00-.707-2.638 1.933 1.933 0 00-2.638.707 1.933 1.933 0 00.707 2.638z" fill="#E67861"></path>
      </g>
    </g>
    <defs>
      <clipPath id="clip0">
        <path fill="#fff" d="M0 0h34v34H0z"></path>
      </clipPath>
      <filter id="filter0_d" x="-35" y="-255" width="411" height="609" filterUnits="userSpaceOnUse" color-interpolation-filters="sRGB">
        <feFlood flood-opacity="0" result="BackgroundImageFix"></feFlood>
        <feColorMatrix in="SourceAlpha" values="0 0 0 0 0 0 0 0 0 0 0 0 0 0 0 0 0 0 127 0" result="hardAlpha"></feColorMatrix>
        <feOffset dy="4"></feOffset>
        <feGaussianBlur stdDeviation="10"></feGaussianBlur>
        <feColorMatrix values="0 0 0 0 0 0 0 0 0 0 0 0 0 0 0 0 0 0 0.25 0"></feColorMatrix>
        <feBlend in2="BackgroundImageFix" result="effect1_dropShadow"></feBlend>
        <feBlend in="SourceGraphic" in2="effect1_dropShadow" result="shape"></feBlend>
      </filter>
    </defs>
  </symbol>
   <symbol  xmlns="http://www.w3.org/2000/svg" viewBox="0 0 35 34" id="category-6">
    <path fill="#E5E5E5" d="M0 0h35v34H0z"></path>
    <g filter="url(#filter0_d)">
      <path d="M-14-295h371v559c0 5.523-4.477 10-10 10H-4c-5.523 0-10-4.477-10-10v-559z" fill="#fff"></path>
      <path fill-rule="evenodd" clip-rule="evenodd" d="M18.672 19.415v11.178A3.408 3.408 0 0115.264 34H7.92a3.408 3.408 0 01-3.407-3.407v-11.15c0-.432.082-.861.243-1.263L9.207 7.034a4.922 4.922 0 014.57-3.096h3.485c3.429 0 5.807 3.418 4.614 6.633l-3.133 8.449c-.047.126-.071.26-.071.395zm-1.136 0c0-.27.048-.538.142-.79l3.133-8.448c.918-2.474-.912-5.103-3.55-5.103h-3.483a3.786 3.786 0 00-3.516 2.381L5.809 18.601a2.272 2.272 0 00-.162.843v11.149a2.272 2.272 0 002.272 2.271h7.345a2.272 2.272 0 002.272-2.271V19.415zM35 21.278v9.315A3.408 3.408 0 0131.592 34h-4.619a3.408 3.408 0 01-3.407-3.407v-9.315a3.408 3.408 0 013.407-3.407h4.62A3.408 3.408 0 0135 21.278zm-1.136 0a2.272 2.272 0 00-2.272-2.271h-4.619a2.272 2.272 0 00-2.271 2.271v9.315a2.272 2.272 0 002.271 2.271h4.62a2.272 2.272 0 002.271-2.271v-9.315z" fill="#5C6D7D"></path>
      <path d="M7.198 5.04l4.044-.07-1.065 1.151-2.961.054a2.115 2.115 0 00-1.707 3.313l1.675 2.44-.322 1.54-2.288-3.337a3.251 3.251 0 012.624-5.09zm15.28 12.397l-3.992.656.888-1.294 2.922-.482a2.114 2.114 0 001.21-3.525l-2.01-2.171.095-1.572 2.747 2.972a3.25 3.25 0 01-1.86 5.416zM20.422 2.435l1.092 3.895-1.384-.74-.802-2.85a2.114 2.114 0 00-3.636-.815l-1.937 2.238-1.572.078 2.65-3.058a3.25 3.25 0 015.589 1.252zM2.696 22.801L5.5 21.187l-.42 1.512-1.85 1.102a2.115 2.115 0 00.001 3.727l1.85 1.173.42 1.518-2.806-1.691a3.25 3.25 0 010-5.727zm18.224 0l-2.805-1.614.419 1.512 1.85 1.102a2.115 2.115 0 010 3.727l-1.85 1.173-.42 1.518 2.806-1.691a3.25 3.25 0 000-5.727z" fill="#5C6D7D"></path>
      <path fill-rule="evenodd" clip-rule="evenodd" d="M16.125 19.349v10.335a1.893 1.893 0 01-1.893 1.893H9.055a1.893 1.893 0 01-1.893-1.893V19.359c0-.423.079-.842.232-1.236l3.951-10.149a2.65 2.65 0 012.47-1.689h3.345a2.65 2.65 0 012.478 3.59l-3.44 9.071a1.136 1.136 0 00-.073.403zm-1.136 0c0-.275.05-.548.148-.805l3.439-9.072a1.514 1.514 0 00-1.416-2.051h-3.345c-.624 0-1.185.383-1.411.965l-3.951 10.15a2.272 2.272 0 00-.155.823v10.325c0 .418.339.757.757.757h5.177a.757.757 0 00.757-.757V19.349z" fill="#E67861"></path>
      <path d="M7.465 8.784V7.648H6.329v1.136h1.136zm13.91 4.569v1.136h1.136v-1.136h-1.136zM4.133 26.2v-1.135H2.997V26.2h1.136zm15.35 0v-1.135h1.135V26.2h-1.135zM17.915 3.105V1.969h-1.136v1.136h1.136zm9.058 28.396v-1.136h-1.136v1.136h1.136z" fill="#5C6D7D"></path>
      <path fill-rule="evenodd" clip-rule="evenodd" d="M31.593 26.958v-2.045a1.893 1.893 0 00-1.894-1.893h-.833a1.893 1.893 0 00-1.893 1.893v2.045c0 1.045.848 1.893 1.893 1.893h.833a1.893 1.893 0 001.893-1.893zm1.135-2.045a3.029 3.029 0 00-3.029-3.029h-.833a3.029 3.029 0 00-3.029 3.03v2.044a3.029 3.029 0 003.03 3.029h.832a3.029 3.029 0 003.03-3.03v-2.044z" fill="#E67861"></path>
      <path d="M26.973 21.506V20.37h-1.136v1.136h1.136zm5.68 9.995v-1.136h-1.136v1.136h1.136zm0-9.995V20.37h-1.136v1.136h1.136z" fill="#5C6D7D"></path>
    </g>
    <defs>
      <filter id="filter0_d" x="-34" y="-311" width="411" height="609" filterUnits="userSpaceOnUse" color-interpolation-filters="sRGB">
        <feFlood flood-opacity="0" result="BackgroundImageFix"></feFlood>
        <feColorMatrix in="SourceAlpha" values="0 0 0 0 0 0 0 0 0 0 0 0 0 0 0 0 0 0 127 0" result="hardAlpha"></feColorMatrix>
        <feOffset dy="4"></feOffset>
        <feGaussianBlur stdDeviation="10"></feGaussianBlur>
        <feColorMatrix values="0 0 0 0 0 0 0 0 0 0 0 0 0 0 0 0 0 0 0.25 0"></feColorMatrix>
        <feBlend in2="BackgroundImageFix" result="effect1_dropShadow"></feBlend>
        <feBlend in="SourceGraphic" in2="effect1_dropShadow" result="shape"></feBlend>
      </filter>
    </defs>
  </symbol>
   <symbol  xmlns="http://www.w3.org/2000/svg" viewBox="0 0 34 34" id="category-7">
    <path fill="#E5E5E5" d="M0 0h34v34H0z"></path>
    <g filter="url(#filter0_d)">
      <path d="M-15-350h371v559c0 5.523-4.477 10-10 10H-5c-5.523 0-10-4.477-10-10v-559z" fill="#fff"></path>
      <g clip-path="url(#clip0)">
        <path fill-rule="evenodd" clip-rule="evenodd" d="M31.787 28.706l-.791 1.291a4.922 4.922 0 01-6.768 1.626l-1.292-.791a4.922 4.922 0 01-1.625-6.769l.79-1.291a4.922 4.922 0 016.769-1.626l1.291.791a4.922 4.922 0 011.626 6.769zm-.968-.594a3.786 3.786 0 00-1.251-5.206l-1.291-.791a3.786 3.786 0 00-5.207 1.25l-.79 1.292a3.786 3.786 0 001.25 5.206l1.291.791a3.786 3.786 0 005.206-1.25l.792-1.292z" fill="#E67861"></path>
        <path fill-rule="evenodd" clip-rule="evenodd" d="M28.288 27.894l.277-.452a1.893 1.893 0 00-.625-2.603l-.71-.435a1.893 1.893 0 00-2.604.625l-.277.452a1.893 1.893 0 00.626 2.603l.71.435a1.893 1.893 0 002.603-.625zm1.246.141a3.029 3.029 0 00-1-4.165l-.711-.435a3.029 3.029 0 00-4.165 1l-.277.453a3.029 3.029 0 001 4.165l.71.435a3.029 3.029 0 004.166-1l.277-.453z" fill="#5C6D7D"></path>
        <path d="M23.768 32.229l.593-.969-.969-.593-.593.968.969.594zm6.092-9.944l.593-.968-.969-.594-.593.969.969.593z" fill="#E67861"></path>
        <path d="M32.482 22.15l.003 4.535-1.07-1.147-.066-3.453a2.114 2.114 0 00-.285-1.187c-.59-1.008-1.82-1.309-2.828-.72l-3.206 1.537-1.513-.434 4.147-2.082a3.25 3.25 0 011.82-.438c1.793.101 3.1 1.597 2.998 3.39zm-7.013 11.448l4.04-2.057-1.508-.432-3.105 1.51a2.11 2.11 0 01-1.187.285c-1.166-.067-1.993-1.027-1.926-2.193l-.087-3.554-1.074-1.151.028 4.64a3.24 3.24 0 00.438 1.82c.904 1.552 2.83 2.037 4.38 1.132z" fill="#E67861"></path>
        <path fill-rule="evenodd" clip-rule="evenodd" d="M12.735 10.053l-.791 1.291a4.922 4.922 0 01-6.769 1.626l-1.29-.791a4.922 4.922 0 01-1.627-6.768l.791-1.292a4.922 4.922 0 016.769-1.625l1.291.79a4.922 4.922 0 011.626 6.769zm-.969-.593a3.786 3.786 0 00-1.25-5.207l-1.292-.79a3.786 3.786 0 00-5.206 1.25l-.791 1.291a3.786 3.786 0 001.25 5.207L5.77 12a3.786 3.786 0 005.206-1.25l.791-1.291z" fill="#5C6D7D"></path>
        <path fill-rule="evenodd" clip-rule="evenodd" d="M9.236 9.241l.277-.452a1.893 1.893 0 00-.625-2.603l-.71-.435a1.893 1.893 0 00-2.604.625l-.277.452a1.893 1.893 0 00.626 2.603l.71.436a1.893 1.893 0 002.603-.626zm1.245.142a3.029 3.029 0 00-1-4.166l-.71-.435a3.029 3.029 0 00-4.165 1l-.277.453a3.029 3.029 0 001 4.165l.71.435a3.029 3.029 0 004.166-1l.277-.452z" fill="#E67861"></path>
        <path d="M4.715 13.576l.594-.968-.969-.594-.593.969.968.593zm6.092-9.944l.594-.968-.969-.594-.593.969.968.593z" fill="#5C6D7D"></path>
        <path d="M13.43 3.498l.003 4.535-1.07-1.148-.066-3.452a2.115 2.115 0 00-.285-1.188c-.59-1.008-1.82-1.308-2.828-.72L5.978 3.064l-1.513-.435L8.61.546a3.251 3.251 0 011.82-.437c1.794.1 3.1 1.596 2.999 3.389zM6.417 14.946l4.04-2.057-1.508-.433-3.105 1.51c-.36.21-.772.309-1.187.285-1.166-.067-1.993-1.027-1.926-2.193l-.087-3.553L1.57 7.353l.028 4.64a3.25 3.25 0 00.437 1.821c.905 1.551 2.83 2.036 4.382 1.132zm9.344 9.719a9.196 9.196 0 00-.025-.239 7.199 7.199 0 00-.154-.847c-.026-.108-.051-.216-.082-.324l-.006-.017a7.277 7.277 0 00-.208-.6l-.03-.083a7.379 7.379 0 00-.278-.601l-.023-.049a7.897 7.897 0 00-.347-.59l-.017-.029a7.537 7.537 0 00-.393-.542c-.014-.015-.024-.03-.036-.044a7.575 7.575 0 00-.404-.457c-.027-.03-.052-.06-.08-.089a7.207 7.207 0 00-.373-.347c-.057-.05-.108-.102-.165-.15-.1-.084-.206-.158-.31-.237-.09-.068-.178-.139-.271-.202-.082-.057-.17-.105-.253-.157-.114-.07-.22-.143-.335-.206l-.026-.013c-.046-.025-.095-.045-.14-.069a7.292 7.292 0 00-.493-.237 4.11 4.11 0 00-.219-.083c-.147-.056-.293-.113-.444-.162-.085-.028-.174-.047-.261-.071a6.339 6.339 0 00-.426-.11c-.098-.021-.197-.034-.296-.051-.136-.023-.271-.047-.409-.063-.113-.013-.23-.017-.346-.025a6.794 6.794 0 00-.364-.018c-.04 0-.079-.006-.12-.006-.107 0-.212.01-.319.016-.085.004-.17.006-.255.012a7.204 7.204 0 00-.557.068c-.041.006-.083.011-.124.019a7.512 7.512 0 00-.632.139l-.04.008-.02.007a7.253 7.253 0 00-.65.213l-.057.019c-.212.083-.42.175-.623.276-.018.01-.035.016-.052.026-.2.1-.392.21-.58.329-.021.013-.043.025-.064.039a7.282 7.282 0 00-.513.364c-.03.023-.063.045-.093.07-.148.117-.29.243-.428.372-.045.04-.09.078-.132.12a7.407 7.407 0 00-.336.356c-.057.063-.114.123-.17.188-.088.104-.17.214-.25.323-.065.088-.134.17-.196.263-.068.1-.128.206-.191.31-.064.103-.123.187-.177.283l-.01.022c-.132.244-.25.494-.353.75-.029.072-.052.143-.079.215a7.215 7.215 0 00-.378 1.474c-.01.075-.025.15-.034.227a7.372 7.372 0 00-.053.858c0 .216.013.431.032.647.007.08.017.16.026.239.016.13.037.259.057.387.027.156.06.309.097.46.026.108.05.216.082.324l.005.017c.061.205.132.405.209.601.01.028.019.057.03.082.083.206.177.407.279.604l.021.045c.108.205.224.403.35.595l.014.024c.124.189.257.371.397.549l.028.036c.129.161.267.315.41.464.025.027.048.057.074.082.121.124.25.24.38.354.054.047.103.098.158.143.102.086.212.164.32.244.087.066.17.135.26.196.091.061.176.108.263.162.109.067.215.14.327.201l.022.011c.243.131.494.25.75.352.072.03.143.053.215.08a7.203 7.203 0 001.474.377c.075.011.15.026.227.034.285.036.572.054.86.056.215 0 .431-.013.647-.033.08-.006.16-.016.239-.025a7.202 7.202 0 00.847-.154c.107-.026.216-.05.323-.081l.017-.006c.204-.06.403-.13.6-.208l.083-.03c.205-.083.404-.177.6-.277l.05-.024c.201-.107.397-.221.587-.345l.032-.02c.185-.121.363-.251.537-.389l.049-.037c.156-.125.303-.259.448-.396.032-.03.066-.057.098-.09.117-.113.227-.238.337-.361.053-.057.109-.113.16-.176.079-.095.15-.196.227-.294.076-.099.147-.189.215-.288.049-.072.091-.15.138-.226.076-.12.156-.238.227-.364l.01-.022c.132-.243.25-.494.353-.75.028-.07.052-.143.078-.214a6.06 6.06 0 00.196-.604 7.685 7.685 0 00.182-.871c.012-.075.026-.149.034-.224.034-.285.051-.57.052-.857a7.03 7.03 0 00-.033-.648zm-3.91-2.002c.025-.032.046-.067.07-.1.04-.057.08-.11.113-.167.024-.04.044-.081.066-.122.03-.056.062-.107.088-.163.02-.044.037-.089.054-.133.023-.057.048-.11.067-.17.015-.045.025-.092.039-.138.016-.057.034-.113.047-.174.01-.047.015-.095.023-.142.01-.06.021-.119.027-.179.005-.048.005-.097.007-.145.003-.06.007-.12.006-.18 0-.05-.007-.099-.01-.148-.004-.05-.004-.103-.011-.155l.049.045a6.188 6.188 0 01.598.593c.353.397.654.838.897 1.312l.036.075c.11.224.207.454.289.69.006.015.015.03.017.045v.008l-.57.751a1.709 1.709 0 01-1.36.68h-2.362c-.01-.027-.022-.053-.033-.08l-.011-.027-.025-.06 1.67-1.67c.078-.078.15-.16.219-.245zM8.3 19.085c.161-.003.323 0 .484.012.08.005.163.005.244.013.226.021.452.055.674.102.06.012.118.031.178.045.17.042.34.087.505.142.077.026.151.057.227.083.147.055.292.116.434.182.045.02.088.042.133.064l.133.937a1.707 1.707 0 01-.48 1.442l-1.671 1.671c-.02-.01-.04-.016-.06-.025l-.028-.011c-.026-.01-.052-.023-.079-.033v-2.663a2.835 2.835 0 00-.048-.493c-.007-.045-.018-.09-.028-.135a2.818 2.818 0 00-.108-.363c-.013-.037-.024-.074-.039-.11a2.853 2.853 0 00-.219-.42c-.018-.028-.04-.054-.057-.081a2.79 2.79 0 00-.24-.302c-.015-.017-.026-.037-.041-.053.026 0 .056-.003.085-.003zm-4.597 2.171v.002a6.32 6.32 0 01.53-.543c.03-.026.057-.056.088-.08a6.31 6.31 0 011.424-.94l.026-.012c.266-.126.54-.233.82-.32l.33.165c.576.286.94.875.939 1.519v2.663c-.028.01-.053.022-.08.033l-.027.011-.06.025-1.671-1.67a2.83 2.83 0 00-.397-.324l-.066-.046a2.817 2.817 0 00-.43-.226l-.077-.031a2.878 2.878 0 00-.48-.145l-.026-.004a2.855 2.855 0 00-.492-.048c-.014 0-.027-.005-.041-.005h-.028c-.073 0-.146.007-.22.014-.034 0-.069 0-.103.007l.041-.045zM2.32 25.73v.004c-.033.038-.068.074-.099.114a6.25 6.25 0 01-.027-.535c0-.228.014-.454.039-.68.006-.057.018-.114.026-.167.023-.17.05-.34.087-.504.015-.068.035-.134.052-.2a6.4 6.4 0 01.213-.67 6.1 6.1 0 01.164-.388c.021-.047.045-.094.067-.14l.937-.135a1.704 1.704 0 011.443.481l1.67 1.671c-.008.02-.015.04-.024.057l-.012.03c-.01.025-.023.05-.032.077H4.46c-.11 0-.22.007-.328.02-.038.004-.075.014-.113.02-.07.01-.14.02-.209.037-.042.01-.084.025-.126.037-.062.018-.124.034-.184.057a1.217 1.217 0 00-.128.057c-.057.023-.114.045-.17.073-.044.021-.085.047-.127.071-.052.029-.105.057-.154.088-.05.032-.081.057-.122.088-.041.032-.095.067-.14.104-.046.038-.075.068-.114.102-.04.034-.087.077-.128.12-.04.041-.064.073-.098.111zm2.683 2.232v.004c-.02.027-.037.057-.056.083-.044.06-.09.12-.129.185-.02.033-.037.07-.056.104a2.194 2.194 0 00-.098.18c-.019.04-.032.081-.049.122-.025.059-.05.119-.072.18-.014.042-.023.086-.035.129-.018.06-.037.12-.05.183-.01.045-.015.091-.022.137-.01.06-.022.121-.028.183-.005.048-.005.096-.007.144 0 .06-.007.12-.006.18 0 .05.007.1.01.15.003.05.004.102.01.153l-.043-.04a6.274 6.274 0 01-.602-.595 6.324 6.324 0 01-.895-1.313l-.036-.073a6.205 6.205 0 01-.29-.69l-.016-.046.568-.763a1.71 1.71 0 011.36-.68h2.363c.009.027.021.052.032.078l.012.03c.009.02.016.04.025.057l-1.671 1.67c-.078.08-.15.162-.219.248zm3.855 3.562l-.001.004a5.94 5.94 0 01-.627.012 6.125 6.125 0 01-.843-.084c-.05-.009-.102-.013-.15-.023a6.214 6.214 0 01-.738-.191c-.05-.017-.098-.037-.148-.057a6.33 6.33 0 01-.676-.286l-.133-.94a1.707 1.707 0 01.48-1.442l1.672-1.671c.02.01.04.017.06.026l.027.01c.026.011.052.023.08.033v2.364c0 .11.006.22.019.328.004.038.014.075.02.113.011.07.02.14.037.208.01.044.026.086.038.129.018.061.034.122.057.182.016.044.037.086.056.13.024.056.046.113.074.17.021.043.047.084.07.126.03.052.058.105.09.155.031.05.056.082.088.122.031.041.066.095.102.14.037.045.069.075.103.113.035.038.077.087.119.127.042.04.076.067.113.1.037.034.074.068.114.099-.035 0-.07 0-.103.003zm.092-5.99a.619.619 0 01-.07.102.575.575 0 01-.13.131.618.618 0 01-.103.07.566.566 0 01-.439 0 .618.618 0 01-.103-.07.549.549 0 01-.122-.118.575.575 0 01-.078-.114.567.567 0 010-.438.578.578 0 01.078-.12v.002a.55.55 0 01.122-.119.624.624 0 01.103-.069.566.566 0 01.439 0c.036.02.07.043.103.07.05.036.094.08.13.13a.62.62 0 01.07.104.567.567 0 010 .438zm4.195 3.84v.004a6.204 6.204 0 01-.593.598c-.397.35-.837.65-1.309.89l-.075.036c-.224.11-.454.207-.69.29l-.045.016-.76-.569a1.708 1.708 0 01-.68-1.36v-2.363c.028-.01.054-.022.08-.033l.027-.01c.02-.01.04-.016.06-.026l1.672 1.671c.122.12.255.229.396.324l.063.044a2.81 2.81 0 00.507.258c.153.062.312.11.473.143.016.004.033.005.05.008.164.031.33.048.496.05h.033c.114 0 .227-.008.34-.022-.014.02-.03.035-.045.05zm1.475-3.375c-.006.057-.018.114-.026.17-.023.17-.05.335-.086.5-.016.07-.035.137-.053.205-.039.148-.08.295-.13.439-.025.077-.056.153-.083.227a6.31 6.31 0 01-.163.385c-.022.048-.045.094-.068.141l-.937.134a1.709 1.709 0 01-1.442-.48L9.96 26.047c.01-.02.016-.04.025-.06l.01-.027c.012-.027.024-.052.034-.08h2.364c.11 0 .219-.006.328-.019.038-.004.075-.014.113-.02.07-.01.14-.02.208-.037.043-.01.085-.025.128-.038.062-.017.123-.033.183-.057.044-.015.085-.036.13-.056.056-.024.112-.046.17-.073.043-.022.084-.048.126-.072.052-.029.105-.056.155-.088.05-.032.081-.057.122-.088.04-.032.095-.067.14-.103.044-.036.075-.069.113-.103.038-.035.086-.077.127-.119.04-.042.064-.075.098-.113l-.001.006c.032-.038.068-.074.098-.113.016.176.027.352.027.531 0 .228-.013.455-.039.68z" fill="#5C6D7D"></path>
        <path d="M5.203 18.213l.563-.725 2.705 2.1-.563.725-2.705-2.1zm3.39 12.777l.562-.725 2.706 2.1-.563.724-2.705-2.1zm2.588-13.058l.91-.115.428 3.398-.91.115-.428-3.398zM4.544 29.363l.91-.115.428 3.398-.91.115-.428-3.398zM1.175 22.64l-.115-.91 3.398-.429.115.91-3.398.428zm11.431 6.636l-.115-.91 3.398-.428.115.91-3.398.428zm-11.15-.658l-.725-.563 2.1-2.705.725.563-2.1 2.705zm12.776-3.39l-.724-.563 2.1-2.705.724.563-2.1 2.705z" fill="#5C6D7D"></path>
        <path d="M7.697 17.244l.796-.516 1.925 2.974-.797.516-1.924-2.974zM6.646 30.875l.796-.515 1.925 2.974-.797.515-1.924-2.974zM13.63 19.01l.928.199-.742 3.463-.928-.198.742-3.464zM3.248 27.905l.928.2-.743 3.463-.927-.199.742-3.464zm-.995-7.715l.198-.927 3.464.742-.199.928-3.463-.742zm8.895 10.383l.199-.928 3.464.742-.199.928-3.464-.742zM.487 26.124l-.516-.797 2.974-1.924.516.796-2.974 1.925zm13.631 1.051l-.515-.797 2.974-1.924.515.797-2.974 1.924zM32.774 7.959a9.196 9.196 0 00-.025-.239 7.135 7.135 0 00-.154-.847c-.026-.108-.05-.216-.082-.324l-.006-.017a7.282 7.282 0 00-.208-.6c-.01-.027-.019-.057-.03-.083a7.416 7.416 0 00-.278-.601l-.023-.049a7.905 7.905 0 00-.346-.59l-.018-.029a7.536 7.536 0 00-.393-.542c-.014-.015-.024-.03-.035-.044a7.53 7.53 0 00-.404-.457c-.028-.03-.053-.06-.081-.089a7.209 7.209 0 00-.373-.347c-.057-.05-.108-.102-.165-.15-.1-.084-.206-.158-.31-.237-.09-.068-.177-.139-.27-.202-.083-.057-.17-.105-.254-.157-.114-.07-.22-.143-.335-.206l-.026-.013c-.045-.025-.094-.045-.14-.069a7.26 7.26 0 00-.493-.237c-.071-.03-.146-.057-.218-.083a9.846 9.846 0 00-.445-.163c-.085-.027-.174-.047-.26-.07a6.526 6.526 0 00-.427-.11c-.097-.021-.197-.034-.296-.051-.136-.023-.271-.047-.408-.063-.114-.013-.231-.017-.347-.025a6.75 6.75 0 00-.364-.018c-.04 0-.079-.007-.119-.007-.108 0-.213.012-.32.017-.084.004-.17.006-.255.012a7.173 7.173 0 00-.557.068c-.04.006-.082.011-.124.019a7.544 7.544 0 00-.631.139l-.04.008-.02.007a7.286 7.286 0 00-.651.213l-.057.019c-.212.083-.42.175-.623.276l-.052.025c-.2.101-.392.212-.58.33l-.063.039a7.25 7.25 0 00-.514.364c-.03.023-.063.045-.093.07-.148.117-.29.243-.428.372-.044.04-.09.078-.132.12a7.38 7.38 0 00-.336.356c-.057.063-.113.123-.17.188-.087.104-.17.214-.249.323-.066.088-.135.17-.197.263-.068.1-.128.206-.191.31-.064.103-.123.187-.176.283l-.011.022c-.132.244-.25.494-.353.75-.028.072-.052.143-.078.215a7.203 7.203 0 00-.378 1.474c-.012.075-.026.15-.034.227a7.344 7.344 0 00-.054.858c0 .215.013.431.033.647.006.08.016.16.025.239a7.204 7.204 0 00.154.847c.026.108.05.216.082.324l.006.017c.06.205.131.405.208.601.01.028.019.057.03.082.084.206.178.407.279.604l.022.045c.107.205.224.403.35.595l.013.024a7.9 7.9 0 00.397.549l.028.036c.129.16.267.314.41.464.025.027.048.057.074.082.122.124.25.24.381.354.053.047.103.098.157.143.103.086.213.164.32.244.087.066.17.135.26.196.091.061.176.108.263.162.109.067.215.14.327.201l.022.01c.244.132.494.25.751.353.07.03.142.053.214.08a7.244 7.244 0 001.474.377c.076.012.15.026.227.034.285.036.572.054.86.056.215 0 .431-.013.647-.033.08-.006.16-.016.239-.025a7.21 7.21 0 00.847-.154c.108-.026.216-.05.323-.081l.017-.006c.204-.06.403-.13.6-.208l.083-.03c.205-.083.404-.177.6-.277l.05-.024c.201-.107.397-.221.587-.345l.032-.02a7.54 7.54 0 00.537-.388c.016-.014.033-.025.049-.038.156-.125.304-.259.448-.397.033-.03.067-.056.098-.089.118-.113.227-.238.337-.361.053-.057.11-.113.16-.176.079-.095.15-.196.227-.294.076-.099.147-.189.215-.288.049-.072.091-.15.139-.226.075-.12.155-.238.226-.364l.011-.022c.131-.243.249-.494.352-.75.029-.07.052-.143.079-.214.075-.198.14-.4.195-.604a7.6 7.6 0 00.183-.87c.01-.076.025-.15.034-.225.033-.285.05-.57.051-.857a7.03 7.03 0 00-.033-.648zm-3.91-2.002c.025-.032.046-.067.07-.1.04-.057.081-.11.113-.167.025-.04.044-.081.067-.122.03-.057.061-.107.087-.163.02-.044.037-.09.054-.133.024-.057.048-.11.067-.17.015-.045.026-.092.039-.138.016-.057.034-.113.047-.174.01-.048.016-.095.023-.142.01-.06.021-.119.027-.179.005-.048.005-.097.007-.145.003-.06.007-.12.006-.18 0-.05-.007-.099-.01-.148-.003-.05-.004-.103-.01-.155l.048.045a6.204 6.204 0 01.598.592 6.3 6.3 0 01.897 1.313l.036.075c.11.224.207.454.29.69.005.015.014.03.017.045l-.002.008-.568.75a1.708 1.708 0 01-1.36.68h-2.363l-.033-.078L27 7.933c-.009-.02-.015-.04-.025-.06l1.671-1.67c.077-.078.15-.16.218-.246zm-3.55-3.578c.162-.003.323 0 .484.012.081.005.163.005.244.013.226.021.452.055.675.102.06.012.117.031.177.045.17.042.34.087.506.142.076.026.15.057.226.083.147.055.292.116.435.182.044.02.088.042.132.064l.133.937a1.706 1.706 0 01-.48 1.442l-1.671 1.671c-.02-.01-.04-.016-.06-.025l-.027-.011c-.027-.011-.053-.023-.08-.033V4.34a2.834 2.834 0 00-.047-.493 2.818 2.818 0 00-.136-.498c-.014-.037-.025-.074-.04-.11a2.852 2.852 0 00-.219-.42c-.018-.028-.04-.054-.056-.081a2.78 2.78 0 00-.24-.302c-.015-.017-.027-.037-.042-.053.027 0 .056-.003.086-.004zM20.717 4.55v.002a6.32 6.32 0 01.53-.543c.03-.026.057-.056.088-.08a6.29 6.29 0 011.424-.94l.027-.012c.265-.126.539-.233.82-.32l.328.164c.578.286.942.876.94 1.52v2.663c-.027.01-.053.022-.08.033l-.027.011-.06.025-1.67-1.67a2.824 2.824 0 00-.397-.324l-.067-.046a2.82 2.82 0 00-.43-.226l-.077-.031a2.874 2.874 0 00-.479-.145l-.026-.004a2.856 2.856 0 00-.493-.048c-.014 0-.027-.005-.041-.005h-.028c-.073 0-.146.007-.22.014-.034 0-.068 0-.103.007l.041-.045zm-1.383 4.474v.004c-.033.038-.069.074-.1.114a6.25 6.25 0 01-.027-.535c0-.228.014-.455.04-.68.006-.057.017-.114.025-.167.024-.17.05-.34.088-.504.014-.068.034-.134.051-.201a6.373 6.373 0 01.213-.67c.05-.13.105-.26.164-.387l.067-.14.938-.135a1.704 1.704 0 011.442.48l1.671 1.672c-.01.02-.016.04-.024.057l-.013.03c-.01.025-.023.05-.032.077h-2.363c-.11 0-.219.007-.328.02-.038.004-.075.014-.113.02-.07.01-.14.02-.209.037-.042.01-.083.025-.126.037-.062.018-.124.034-.184.057a1.217 1.217 0 00-.128.057c-.057.023-.113.045-.17.073-.044.021-.085.047-.127.071-.052.029-.104.057-.154.088-.05.032-.081.057-.122.088-.04.031-.095.067-.14.104-.046.037-.075.067-.114.101a1.984 1.984 0 00-.127.12c-.04.042-.065.074-.098.112zm2.683 2.232v.004c-.021.027-.038.057-.057.083-.044.06-.09.12-.129.185-.02.033-.037.07-.056.104a2.204 2.204 0 00-.098.18c-.018.04-.032.081-.048.122-.025.059-.052.119-.072.18-.015.042-.024.086-.036.129-.018.06-.037.12-.05.183-.01.045-.015.091-.022.137-.01.06-.022.121-.028.183-.004.048-.004.096-.007.144 0 .06-.007.12-.006.18 0 .05.007.1.01.15.004.05.004.102.011.153l-.044-.04a6.273 6.273 0 01-.601-.595 6.324 6.324 0 01-.896-1.313l-.035-.073a6.212 6.212 0 01-.29-.69l-.017-.046.568-.763a1.71 1.71 0 011.36-.68h2.363c.009.027.021.052.032.078l.013.03c.008.02.015.04.024.057l-1.671 1.67a2.88 2.88 0 00-.218.248zm3.854 3.562l-.001.004a5.94 5.94 0 01-.627.012c-.08 0-.16-.007-.238-.012a6.158 6.158 0 01-.605-.072c-.05-.009-.101-.013-.15-.023a6.193 6.193 0 01-.737-.191c-.05-.017-.099-.037-.149-.057a6.331 6.331 0 01-.676-.286l-.132-.94a1.707 1.707 0 01.48-1.442l1.671-1.671c.02.01.04.016.06.025l.027.011c.027.011.053.024.08.033v2.364c0 .11.006.22.02.328.004.038.013.075.019.113.011.07.02.14.037.208.01.044.026.086.038.129.018.06.034.122.057.182.016.044.037.086.057.13.023.056.046.113.073.17.021.043.047.084.071.126.029.052.057.105.088.155.032.05.057.082.089.122.032.041.066.095.103.14.036.045.068.075.103.113.034.038.076.087.118.127.042.04.077.067.113.1.037.034.075.068.114.099-.035 0-.07 0-.103.003zm.092-5.991a.619.619 0 01-.07.103.571.571 0 01-.13.131.619.619 0 01-.103.07.567.567 0 01-.439 0 .619.619 0 01-.103-.07.55.55 0 01-.122-.118.577.577 0 01-.078-.114.567.567 0 010-.438.583.583 0 01.078-.12v.002a.55.55 0 01.122-.119.619.619 0 01.103-.069.567.567 0 01.439 0c.036.02.071.043.103.07.05.036.095.08.13.13.027.032.05.067.07.103a.567.567 0 010 .439zm4.196 3.84l-.002.005a6.188 6.188 0 01-.592.598 6.3 6.3 0 01-1.309.89l-.075.036c-.224.11-.454.207-.69.29l-.045.016-.759-.569a1.708 1.708 0 01-.68-1.36V10.21c.027-.01.053-.022.08-.033l.027-.011c.02-.008.04-.015.06-.025l1.67 1.671c.123.12.256.228.397.324l.063.044a2.81 2.81 0 00.508.258c.153.061.31.11.472.143.017.004.034.005.05.008.164.031.33.048.497.05h.032c.114 0 .228-.008.34-.022-.014.02-.03.034-.044.05zm1.475-3.374c-.007.057-.018.114-.026.17-.024.17-.05.335-.087.5-.015.07-.035.137-.053.205-.038.148-.08.294-.13.439-.025.077-.056.153-.083.227-.05.13-.104.258-.163.385-.022.048-.045.094-.068.141l-.937.134a1.71 1.71 0 01-1.442-.48l-1.671-1.672c.01-.02.016-.04.025-.06l.011-.027c.01-.027.023-.052.033-.08h2.364c.11 0 .219-.006.328-.019.038-.004.075-.014.113-.02.07-.01.14-.02.208-.037.044-.01.086-.025.129-.038.06-.018.122-.033.182-.057.044-.015.086-.036.13-.056.056-.024.113-.046.17-.073.043-.022.084-.048.126-.072.052-.029.105-.056.155-.088.05-.032.081-.057.122-.089.041-.031.095-.066.14-.102.044-.036.075-.069.113-.103.038-.035.087-.077.127-.119.04-.042.065-.075.098-.113l-.001.006c.033-.038.068-.074.098-.113.016.176.028.352.028.531 0 .228-.014.455-.04.68z" fill="#E67861"></path>
        <path d="M22.216 1.507l.563-.725 2.705 2.1-.563.725-2.705-2.1zm3.39 12.776l.563-.724 2.705 2.1-.563.724-2.705-2.1zm2.589-13.057l.91-.115.428 3.398-.91.115-.428-3.398zm-6.637 11.431l.91-.115.427 3.398-.91.115-.427-3.398zm-3.37-6.724l-.115-.91 3.398-.428.115.91-3.398.428zm11.431 6.637l-.115-.91 3.398-.428.115.91-3.398.428zm-11.149-.658l-.725-.563 2.1-2.705.725.562-2.1 2.706zm12.775-3.39l-.724-.563 2.1-2.705.725.563-2.1 2.705z" fill="#E67861"></path>
        <path d="M24.71.538l.797-.516 1.924 2.974-.797.516L24.71.538zM23.659 14.17l.796-.516 1.925 2.974-.797.515-1.924-2.974zm6.984-11.866l.928.199-.742 3.463-.928-.198.742-3.464zM20.261 11.2l.928.198-.742 3.464-.928-.199.742-3.464zm-.995-7.715l.199-.928 3.463.742-.198.928-3.464-.742zm8.896 10.382l.198-.928 3.464.742-.199.928-3.463-.742zM17.5 9.418l-.515-.797 2.974-1.924.515.796L17.5 9.418zm13.631 1.051l-.515-.797 2.974-1.924.515.797-2.974 1.924z" fill="#5C6D7D"></path>
      </g>
    </g>
    <defs>
      <clipPath id="clip0">
        <path fill="#fff" d="M0 0h34v34H0z"></path>
      </clipPath>
      <filter id="filter0_d" x="-35" y="-366" width="411" height="609" filterUnits="userSpaceOnUse" color-interpolation-filters="sRGB">
        <feFlood flood-opacity="0" result="BackgroundImageFix"></feFlood>
        <feColorMatrix in="SourceAlpha" values="0 0 0 0 0 0 0 0 0 0 0 0 0 0 0 0 0 0 127 0" result="hardAlpha"></feColorMatrix>
        <feOffset dy="4"></feOffset>
        <feGaussianBlur stdDeviation="10"></feGaussianBlur>
        <feColorMatrix values="0 0 0 0 0 0 0 0 0 0 0 0 0 0 0 0 0 0 0.25 0"></feColorMatrix>
        <feBlend in2="BackgroundImageFix" result="effect1_dropShadow"></feBlend>
        <feBlend in="SourceGraphic" in2="effect1_dropShadow" result="shape"></feBlend>
      </filter>
    </defs>
  </symbol>
   <symbol  xmlns="http://www.w3.org/2000/svg" viewBox="0 0 34 34" id="category-8">
    <path fill="#E5E5E5" d="M0 0h34v34H0z"></path>
    <g filter="url(#filter0_d)">
      <path d="M-15-406h371v559c0 5.523-4.477 10-10 10H-5c-5.523 0-10-4.477-10-10v-559z" fill="#fff"></path>
      <g clip-path="url(#clip0)" fill-rule="evenodd" clip-rule="evenodd">
        <path d="M14.44 15.726a.568.568 0 01.103.796l-7.25 9.4-.026.025a.037.037 0 000 .054l1.178 1.178a.037.037 0 00.053 0l.013-.013 8.849-7.776a.568.568 0 11.75.853l-8.824 7.754a1.173 1.173 0 01-1.645-.015l-1.178-1.178a1.173 1.173 0 01-.029-1.63l7.21-9.346a.568.568 0 01.796-.102z" fill="#5C6D7D"></path>
        <path d="M1.472 29.685l2.967 2.967 4.357-3.458-3.865-3.866-3.46 4.357zm2.982-5.583a.605.605 0 01.857 0l4.711 4.712a.605.605 0 010 .856L4.83 33.792a.605.605 0 01-.856 0l-3.641-3.64a.605.605 0 010-.857l4.122-5.193zm7.887-5.402l.27.34-.887.707-.283-.354-.006-.008c-.907-1.22-1.535-2.482-1.788-3.61-.249-1.11-.158-2.224.58-2.962.895-.895 2.382-.89 3.82-.435 1.484.47 3.127 1.473 4.57 2.915 1.442 1.443 2.445 3.086 2.915 4.57.455 1.438.46 2.925-.435 3.82-.717.716-1.79.822-2.864.6-1.091-.225-2.31-.807-3.499-1.656l.66-.924c1.101.787 2.176 1.284 3.068 1.468.908.188 1.507.033 1.832-.292.424-.424.576-1.342.155-2.674-.407-1.285-1.303-2.775-2.636-4.108-1.333-1.333-2.823-2.23-4.109-2.636-1.331-.421-2.249-.27-2.673.155-.335.335-.488.96-.276 1.91.209.928.747 2.043 1.586 3.174z" fill="#5C6D7D"></path>
        <path d="M20.237 23.684a.568.568 0 00.798.091l3.15-2.508c1.387-1.093 2.126-2.517 1.91-4.279-.209-1.705-1.303-3.63-3.317-5.807l-.015-.016-.016-.015c-2.178-2.014-4.078-3.084-5.772-3.278-1.745-.2-3.159.537-4.298 1.85l-.007.01-2.517 3.16a.568.568 0 00.888.708l2.502-3.142c.955-1.097 2.02-1.605 3.303-1.458 1.333.154 3.008 1.025 5.113 2.969 1.945 2.106 2.844 3.808 3.009 5.158.159 1.295-.35 2.353-1.486 3.248l-.001.001-3.154 2.51a.568.568 0 00-.09.799z" fill="#5C6D7D"></path>
        <path d="M16.814 8.703a.568.568 0 00.802-.055l.732-.839c.565-.603 1.399-.928 2.45-.774 1.07.158 2.393.821 3.84 2.268 1.478 1.479 2.141 2.773 2.3 3.81.154 1.009-.158 1.822-.75 2.421l-.787.682a.568.568 0 00.744.859l.818-.71.015-.014c.851-.851 1.294-2.029 1.083-3.41-.208-1.358-1.04-2.861-2.62-4.441-1.558-1.558-3.092-2.384-4.478-2.588-1.4-.207-2.618.232-3.453 1.13l-.005.007-.745.852a.568.568 0 00.054.802zm-3.939 9.55a5.336 5.336 0 01-.263-.505c-.205-.451-.301-.845-.307-1.15-.006-.304.075-.476.171-.572.16-.16.563-.27 1.323.012.719.268 1.574.832 2.38 1.638.807.807 1.371 1.663 1.639 2.38.283.761.173 1.164.013 1.324-.112.112-.332.205-.736.16-.4-.044-.904-.22-1.459-.54l-.567.984c.643.371 1.3.618 1.901.685.598.066 1.22-.041 1.664-.486.657-.657.57-1.659.248-2.523-.338-.907-1.008-1.896-1.899-2.787s-1.88-1.561-2.787-1.899c-.864-.322-1.866-.408-2.523.248-.379.379-.514.889-.504 1.397.01.507.162 1.056.409 1.6.092.2.197.404.316.607l.98-.573z" fill="#5C6D7D"></path>
        <path d="M5.424 28.722a.812.812 0 00-1.146 0 .812.812 0 000 1.146.812.812 0 001.146 0 .812.812 0 000-1.146zm-1.95-.803a1.947 1.947 0 012.753 2.752 1.949 1.949 0 01-2.753 0 1.948 1.948 0 010-2.752z" fill="#E67861"></path>
        <path d="M26.704 12.088a.568.568 0 00.802-.024l1.843-1.957a.568.568 0 00-.827-.779l-1.843 1.958a.568.568 0 00.025.803zm-4.887-4.98c.21.232.569.251.802.041l5.42-4.883.01-.01a.032.032 0 01.045 0l3.439 3.418a.032.032 0 010 .045l-.02.02-.89 1.09a.568.568 0 00.88.718l.856-1.049a1.168 1.168 0 00-.023-1.628l-3.439-3.417v-.001a1.168 1.168 0 00-1.64-.011l-5.399 4.864a.568.568 0 00-.041.802z" fill="#5C6D7D"></path>
        <path d="M29.051 5.975L27.606 7.42l3.64 3.642 1.446-1.446-3.64-3.641zm.616-.99L33.683 9a.87.87 0 010 1.232l-1.82 1.82a.87.87 0 01-1.232 0l-4.016-4.016a.87.87 0 010-1.231l1.82-1.82a.87.87 0 011.232 0z" fill="#E67861"></path>
      </g>
    </g>
    <defs>
      <clipPath id="clip0">
        <path fill="#fff" d="M0 0h34v34H0z"></path>
      </clipPath>
      <filter id="filter0_d" x="-35" y="-422" width="411" height="609" filterUnits="userSpaceOnUse" color-interpolation-filters="sRGB">
        <feFlood flood-opacity="0" result="BackgroundImageFix"></feFlood>
        <feColorMatrix in="SourceAlpha" values="0 0 0 0 0 0 0 0 0 0 0 0 0 0 0 0 0 0 127 0" result="hardAlpha"></feColorMatrix>
        <feOffset dy="4"></feOffset>
        <feGaussianBlur stdDeviation="10"></feGaussianBlur>
        <feColorMatrix values="0 0 0 0 0 0 0 0 0 0 0 0 0 0 0 0 0 0 0.25 0"></feColorMatrix>
        <feBlend in2="BackgroundImageFix" result="effect1_dropShadow"></feBlend>
        <feBlend in="SourceGraphic" in2="effect1_dropShadow" result="shape"></feBlend>
      </filter>
    </defs>
  </symbol>
    <symbol xmlns="http://www.w3.org/2000/svg" viewBox="0 0 34 34" id="category-9">
    <path fill="#E5E5E5" d="M0 0h34v34H0z"></path>
    <g filter="url(#filter0_d)">
      <path d="M-15-461h371V98c0 5.523-4.477 10-10 10H-5c-5.523 0-10-4.477-10-10v-559z" fill="#fff"></path>
      <path fill-rule="evenodd" clip-rule="evenodd" d="M12.166 13.403c4.077 0 7.396 3.319 7.396 7.396s-3.319 7.396-7.396 7.396-7.395-3.32-7.395-7.396c0-4.077 3.318-7.396 7.395-7.396zm0-1.136c4.705 0 8.532 3.828 8.532 8.532 0 4.704-3.827 8.531-8.532 8.531-4.704 0-8.531-3.827-8.531-8.531 0-4.704 3.827-8.532 8.531-8.532z" fill="#5C6D7D"></path>
      <path fill-rule="evenodd" clip-rule="evenodd" d="M10.662 16.432a4.383 4.383 0 014.377 4.377 4.383 4.383 0 01-4.377 4.377 4.383 4.383 0 01-4.377-4.377 4.383 4.383 0 014.377-4.377zm0-1.136a5.519 5.519 0 015.513 5.513 5.519 5.519 0 01-5.513 5.513 5.519 5.519 0 01-5.513-5.513 5.519 5.519 0 015.513-5.513z" fill="#E67861"></path>
      <path fill-rule="evenodd" clip-rule="evenodd" d="M12.54 8.855a.568.568 0 00-.126.793l3.466 4.766 2.002 1.156c3.849 2.222 5.37 6.628 3.2 10.387-2.17 3.759-6.747 4.645-10.595 2.423l-2.02-1.166a.568.568 0 10-.568.984l2.02 1.166c4.3 2.482 9.612 1.55 12.146-2.84 2.534-4.388.685-9.455-3.615-11.938l-1.793-1.035-3.324-4.57a.568.568 0 00-.794-.126z" fill="#5C6D7D"></path>
      <path fill-rule="evenodd" clip-rule="evenodd" d="M13.559 2.24a.19.19 0 00-.136.054L9.94 5.71a.19.19 0 00-.051.178l1.341 5.719a.568.568 0 11-1.106.259L8.783 6.148c-.106-.45.031-.924.362-1.248l3.483-3.417c.253-.249.596-.385.95-.38l7.922.138c.504.01.958.302 1.174.757l3.588 7.549-.927 1.133c3.28 3.393 5.074 6.879 4.84 11.01-.387 6.832-5.452 10.88-11.1 11.493-5.647.612-11.92-2.198-14.827-9.032a.568.568 0 011.045-.444c2.697 6.341 8.474 8.908 13.66 8.346 5.186-.561 9.738-4.236 10.088-10.428.217-3.835-1.488-7.126-4.87-10.508L19.06 6.005a.568.568 0 11.803-.803L24.53 9.87l.397-.486-3.279-6.899a.19.19 0 00-.167-.108l-7.922-.138z" fill="#5C6D7D"></path>
      <path fill-rule="evenodd" clip-rule="evenodd" d="M13.896 6.584a.799.799 0 01-.484-1.018.8.8 0 011.018-.484.8.8 0 01.484 1.019.799.799 0 01-1.018.483zm-1.554-1.4a1.935 1.935 0 001.172 2.47 1.935 1.935 0 002.47-1.172 1.935 1.935 0 00-1.172-2.47 1.935 1.935 0 00-2.47 1.173z" fill="#E67861"></path>
    </g>
    <defs>
      <filter id="filter0_d" x="-35" y="-477" width="411" height="609" filterUnits="userSpaceOnUse" color-interpolation-filters="sRGB">
        <feFlood flood-opacity="0" result="BackgroundImageFix"></feFlood>
        <feColorMatrix in="SourceAlpha" values="0 0 0 0 0 0 0 0 0 0 0 0 0 0 0 0 0 0 127 0" result="hardAlpha"></feColorMatrix>
        <feOffset dy="4"></feOffset>
        <feGaussianBlur stdDeviation="10"></feGaussianBlur>
        <feColorMatrix values="0 0 0 0 0 0 0 0 0 0 0 0 0 0 0 0 0 0 0.25 0"></feColorMatrix>
        <feBlend in2="BackgroundImageFix" result="effect1_dropShadow"></feBlend>
        <feBlend in="SourceGraphic" in2="effect1_dropShadow" result="shape"></feBlend>
      </filter>
    </defs>
  </symbol>
   <symbol fill="none" xmlns="http://www.w3.org/2000/svg" viewBox="0 0 34 34" id="category-10">
    <path fill="#E5E5E5" d="M0 0h34v34H0z"></path>
    <g filter="url(#filter0_d)">
      <path d="M-16-519h371V40c0 5.523-4.477 10-10 10H-6c-5.523 0-10-4.477-10-10v-559z" fill="#fff"></path>
      <g clip-path="url(#clip0)">
        <path fill-rule="evenodd" clip-rule="evenodd" d="M9.118 1.032l6.585 6.586a3.407 3.407 0 010 4.819l-3.266 3.266a3.407 3.407 0 01-4.819 0L1.032 9.117a3.408 3.408 0 010-4.819l3.266-3.266a3.408 3.408 0 014.82 0zm-.804.803a2.272 2.272 0 00-3.212 0L1.835 5.101a2.272 2.272 0 000 3.213L8.421 14.9a2.272 2.272 0 003.213 0l3.266-3.266a2.272 2.272 0 000-3.213L8.314 1.835z" fill="#5C6D7D"></path>
        <path fill-rule="evenodd" clip-rule="evenodd" d="M10.997 15.64l-.715.883 1.629 1.32a1.168 1.168 0 001.627-.024l4.221-4.241v-.001a1.167 1.167 0 00.026-1.624l-1.262-1.591-.89.706 1.3 1.638.023.023a.032.032 0 010 .045l-4.221 4.242a.032.032 0 01-.045 0l-.021-.02-1.672-1.355z" fill="#5C6D7D"></path>
        <path fill-rule="evenodd" clip-rule="evenodd" d="M5.137 2.941a2.082 2.082 0 012.945 0l4.658 4.658a2.082 2.082 0 010 2.945l-2.195 2.196a2.082 2.082 0 01-2.945 0L2.94 8.08a2.082 2.082 0 010-2.945L5.136 2.94zm2.142.803a.947.947 0 00-1.34 0L3.746 5.94a.947.947 0 000 1.34l4.658 4.658c.37.37.969.37 1.339 0l2.195-2.196a.947.947 0 000-1.338l-4.659-4.66z" fill="#E67861"></path>
        <path d="M10.67 14.315l-.803-.803-.803.803.803.803.803-.803zm4.395-4.395l-.803-.803-.804.803.804.803.803-.803zm-1.524 1.712l-.803-.804-1.606 1.607.803.803 1.606-1.606z" fill="#5C6D7D"></path>
        <path fill-rule="evenodd" clip-rule="evenodd" d="M26.255 30.952l-.715.883 1.627 1.318a1.167 1.167 0 001.627-.024l4.22-4.242h.001a1.168 1.168 0 00.026-1.625l-1.273-1.604-.89.706 1.31 1.651.024.023a.032.032 0 010 .046l-4.221 4.242a.032.032 0 01-.046 0l-.02-.021-1.67-1.353z" fill="#5C6D7D"></path>
        <path fill-rule="evenodd" clip-rule="evenodd" d="M24.488 16.478l6.586 6.586a3.408 3.408 0 010 4.82l-3.266 3.265a3.407 3.407 0 01-4.82 0l-6.585-6.586a3.407 3.407 0 010-4.819l3.266-3.266a3.408 3.408 0 014.819 0zm-.803.803a2.272 2.272 0 00-3.213 0l-3.266 3.267a2.272 2.272 0 000 3.212l6.586 6.586a2.272 2.272 0 003.212 0l3.267-3.266a2.272 2.272 0 000-3.213l-6.586-6.586z" fill="#5C6D7D"></path>
        <path fill-rule="evenodd" clip-rule="evenodd" d="M26.094 22.903l-1.446-1.445a1.893 1.893 0 00-2.677 0l-.589.589a1.893 1.893 0 000 2.677l1.446 1.446c.74.739 1.938.739 2.677 0l.59-.59a1.893 1.893 0 000-2.677zm-.642-2.248a3.029 3.029 0 00-4.284 0l-.589.588a3.029 3.029 0 000 4.284l1.446 1.446a3.029 3.029 0 004.283 0l.59-.59a3.029 3.029 0 000-4.283l-1.446-1.446z" fill="#E67861"></path>
        <path d="M26.04 29.382l-.802-.803-.804.803.803.803.804-.803zm-7.067-7.068l-.803-.803-.804.803.804.803.803-.803zm11.083 3.053l-.803-.803-.803.803.803.803.803-.803zm-7.067-7.068l-.804-.804-.803.803.803.804.804-.803z" fill="#5C6D7D"></path>
        <path fill-rule="evenodd" clip-rule="evenodd" d="M4.877 25.422l4.693 4.45a.793.793 0 001.121-1.12l-4.45-4.694.824-.781 4.45 4.693a1.929 1.929 0 01-2.726 2.727l-4.694-4.45.782-.825z" fill="#5C6D7D"></path>
        <path d="M12.84 29.39v-1.136h-1.135v1.136h1.136z" fill="#5C6D7D"></path>
        <path d="M11.716 28.266V27.13H10.58v1.136h1.136zm-1.553 3.801v-1.136H9.027v1.136h1.136z" fill="#5C6D7D"></path>
        <path d="M9.039 30.943v-1.136H7.903v1.136h1.136z" fill="#5C6D7D"></path>
        <path fill-rule="evenodd" clip-rule="evenodd" d="M13.19 33.263l-2.444-2.444a.568.568 0 11.804-.803l2.444 2.444a.568.568 0 11-.803.803z" fill="#5C6D7D"></path>
        <path d="M9.746 26.288l.818-.788-3.155-3.27-.818.79 3.155 3.268zm-3.55 3.372l.78-.824-3.298-3.124-.78.824 3.298 3.125z" fill="#5C6D7D"></path>
        <path fill-rule="evenodd" clip-rule="evenodd" d="M5.257 21.053c-.656.205-1.43.676-2.14 1.386-.71.71-1.182 1.485-1.387 2.141-.214.685-.1 1.084.074 1.26.175.174.574.287 1.26.073.656-.205 1.43-.676 2.14-1.386.71-.71 1.181-1.484 1.386-2.14.214-.686.101-1.085-.074-1.26-.175-.175-.574-.288-1.259-.074zM4.92 19.97c.836-.26 1.777-.268 2.4.355.624.623.617 1.565.356 2.4-.27.866-.854 1.793-1.667 2.607-.813.813-1.741 1.397-2.606 1.666-.836.261-1.778.269-2.4-.355-.624-.623-.617-1.564-.356-2.4.27-.865.854-1.793 1.667-2.606.813-.813 1.74-1.397 2.606-1.667zM23.808 5.886l4.693 4.45a.793.793 0 001.121-1.12l-4.45-4.694.824-.782 4.45 4.694a1.929 1.929 0 01-2.726 2.726l-4.694-4.45.782-.824z" fill="#5C6D7D"></path>
        <path d="M31.771 9.854V8.718h-1.136v1.136h1.136z" fill="#5C6D7D"></path>
        <path d="M30.647 8.73V7.592H29.51V8.73h1.136zm-1.553 3.8v-1.135h-1.136v1.136h1.136z" fill="#5C6D7D"></path>
        <path d="M27.97 11.406V10.27h-1.136v1.136h1.136z" fill="#5C6D7D"></path>
        <path fill-rule="evenodd" clip-rule="evenodd" d="M32.728 14.332l-3.05-3.05a.568.568 0 11.803-.803l3.05 3.05a.568.568 0 11-.803.803z" fill="#5C6D7D"></path>
        <path d="M28.677 6.752l.818-.789-3.155-3.27-.818.79 3.155 3.269zm-3.55 3.372l.78-.825-3.298-3.124-.781.825 3.299 3.124z" fill="#5C6D7D"></path>
        <path fill-rule="evenodd" clip-rule="evenodd" d="M24.188 1.517c-.656.205-1.431.676-2.14 1.386-.71.71-1.182 1.484-1.387 2.14-.214.686-.1 1.084.074 1.26.175.175.574.288 1.26.074.656-.205 1.43-.676 2.14-1.386.71-.71 1.181-1.485 1.386-2.141.214-.686.101-1.084-.074-1.26-.175-.174-.574-.287-1.259-.073zM23.85.432c.836-.26 1.777-.268 2.4.355.624.624.616 1.565.355 2.401-.27.865-.853 1.793-1.666 2.606-.814.813-1.741 1.397-2.606 1.667-.836.26-1.778.268-2.4-.355-.624-.624-.617-1.565-.356-2.401.27-.865.854-1.793 1.667-2.606.813-.813 1.74-1.397 2.606-1.667z" fill="#5C6D7D"></path>
      </g>
    </g>
    <defs>
      <clipPath id="clip0">
        <path fill="#fff" d="M0 0h34v34H0z"></path>
      </clipPath>
      <filter id="filter0_d" x="-36" y="-535" width="411" height="609" filterUnits="userSpaceOnUse" color-interpolation-filters="sRGB">
        <feFlood flood-opacity="0" result="BackgroundImageFix"></feFlood>
        <feColorMatrix in="SourceAlpha" values="0 0 0 0 0 0 0 0 0 0 0 0 0 0 0 0 0 0 127 0" result="hardAlpha"></feColorMatrix>
        <feOffset dy="4"></feOffset>
        <feGaussianBlur stdDeviation="10"></feGaussianBlur>
        <feColorMatrix values="0 0 0 0 0 0 0 0 0 0 0 0 0 0 0 0 0 0 0.25 0"></feColorMatrix>
        <feBlend in2="BackgroundImageFix" result="effect1_dropShadow"></feBlend>
        <feBlend in="SourceGraphic" in2="effect1_dropShadow" result="shape"></feBlend>
      </filter>
    </defs>
  </symbol>
    <symbol  xmlns="http://www.w3.org/2000/svg" viewBox="0 0 30 26" id="comparison">
    <path d="M29.555 15.632l-3.422-7.33 1.477.424a.61.61 0 10.337-1.174L17.676 4.604l.003-.132a2.678 2.678 0 00-5.017-1.307L2.39.218a.611.611 0 00-.337 1.175l2.028.582L.409 9.838a.611.611 0 00-.409.576 4.9 4.9 0 008.371 3.46 4.843 4.843 0 001.462-3.46.611.611 0 00-.445-.588L5.976 2.52l6.348 1.821a2.683 2.683 0 002.065 2.74v14.86c-2.096 0-3.858-.032-4.155.03a2.463 2.463 0 00-1.956 2.395v.855c.01.345.29.621.635.626h12.174a.645.645 0 00.635-.626v-.855a2.463 2.463 0 00-1.955-2.396c-.206-.06-2.15-.029-4.156-.029V7.08a2.689 2.689 0 001.727-1.301l6.917 1.984-3.679 7.88a.61.61 0 00-.41.577 4.9 4.9 0 008.372 3.459A4.844 4.844 0 0030 16.219a.611.611 0 00-.445-.587zM4.9 3.076l3.127 6.698H1.775L4.9 3.076zm0 10.988a3.654 3.654 0 01-3.628-3.068h7.284A3.707 3.707 0 014.9 14.064zm15.6 10.3v.26h-11v-.26c0-.673.572-1.207 1.246-1.207h8.506c.674 0 1.247.534 1.247 1.208zM15 5.93a1.458 1.458 0 111.415-1.116.608.608 0 00-.034.12A1.459 1.459 0 0115 5.929zm13.194 9.65H21.94l3.127-6.697 3.127 6.697zm-3.127 4.29c-1.8.01-3.34-1.29-3.628-3.067h7.284a3.707 3.707 0 01-3.656 3.067z"></path>
  </symbol>
   <symbol xmlns="http://www.w3.org/2000/svg" viewBox="0 0 30 24" id="favorites">
    <path d="M29.536 4.826C28.546 2.14 26.174.383 23.348.24l-.033-.001h-.414c-3.568 0-6.633 2.197-7.912 5.309-1.28-3.113-4.344-5.31-7.912-5.31H6.63C3.81.383 1.446 2.142.46 4.83c-1.017 2.775-.324 5.742 1.807 7.74l11.21 10.603a2.3 2.3 0 001.539.59c.554 0 1.104-.2 1.526-.6l1.704-1.608c.428-.428.67-.992.682-1.588a2.2 2.2 0 00-.65-1.612.638.638 0 10-.902.902.972.972 0 01-.018 1.382l-1.692 1.596c-.362.343-.95.337-1.325 0L3.142 11.64C1.39 9.996.823 7.554 1.66 5.268c.804-2.194 2.727-3.632 5.02-3.754h.398c4.01 0 7.274 3.263 7.274 7.274a.638.638 0 001.276 0c0-4.011 3.263-7.274 7.274-7.274h.398c2.3.123 4.23 1.56 5.04 3.754.84 2.278.275 4.72-1.487 6.387l-3.573 3.573a2.23 2.23 0 00-.666 1.583c0 .593.237 1.155.666 1.584a.638.638 0 00.902-.902.962.962 0 01-.291-.682c0-.251.103-.493.291-.681l3.56-3.56c2.127-2.012 2.814-4.979 1.795-7.744z"></path>
  </symbol>
    <symbol  xmlns="http://www.w3.org/2000/svg" viewBox="0 0 30 30" id="shopping-cart">
    <g clip-path="url(#clip0)">
      <path d="M29.875 5.25c-.125-.125-.25-.25-.5-.25H5.625L5 1.75c0-.25-.375-.5-.625-.5H.625C.25 1.25 0 1.5 0 1.875s.25.625.625.625h3.25l3 15.25c.375 2 2.25 3.5 4.25 3.5H25.5c.375 0 .625-.25.625-.625S25.875 20 25.5 20H11.25c-1 0-2-.5-2.5-1.375l18.25-2.5c.25 0 .5-.25.5-.5l2.5-10s0-.25-.125-.375zm-3.5 9.75l-18.25 2.375-2.25-11.25H28.5L26.375 15zm-15.75 7.5A3.095 3.095 0 007.5 25.625a3.095 3.095 0 003.125 3.125 3.095 3.095 0 003.125-3.125 3.095 3.095 0 00-3.125-3.125zm0 5c-1 0-1.875-.875-1.875-1.875s.875-1.875 1.875-1.875 1.875.875 1.875 1.875-.875 1.875-1.875 1.875zm12.5-5A3.095 3.095 0 0020 25.625a3.095 3.095 0 003.125 3.125 3.095 3.095 0 003.125-3.125 3.095 3.095 0 00-3.125-3.125zm0 5c-1 0-1.875-.875-1.875-1.875s.875-1.875 1.875-1.875S25 24.625 25 25.625s-.875 1.875-1.875 1.875z"></path>
    </g>
    <defs>
      <clipPath id="clip0">
        <path fill="#fff" d="M0 0h30v30H0z"></path>
      </clipPath>
    </defs>
  </symbol>
    <symbol xmlns="http://www.w3.org/2000/svg" viewBox="0 0 20 20" id="inStock">
    <path d="M10.073 11.98l8.201-9.002 1.083.987-9.209 10.108L5.128 9.3l1.009-1.06 3.936 3.741zm8.715-5.24l-1.142 1.258c.166.637.254 1.304.254 1.992 0 4.362-3.548 7.91-7.91 7.91-4.361 0-7.91-3.548-7.91-7.91 0-4.361 3.549-7.91 7.91-7.91 2.02 0 3.867.762 5.266 2.013l.988-1.087A9.307 9.307 0 009.99.616 9.313 9.313 0 003.361 3.36 9.313 9.313 0 00.615 9.99a9.31 9.31 0 002.746 6.628 9.313 9.313 0 006.63 2.746 9.313 9.313 0 006.628-2.746 9.313 9.313 0 002.746-6.629 9.377 9.377 0 00-.576-3.25z" fill="#259756"></path>
  </symbol>
  <symbol  xmlns="http://www.w3.org/2000/svg" viewBox="0 0 76 14" id="fourStars-">
    <path d="M63.683 14a.262.262 0 01-.261-.307l.82-4.74-3.47-3.355a.262.262 0 01.148-.449l4.793-.691L67.857.147a.265.265 0 01.475 0l2.143 4.311 4.794.691c.1.015.183.084.214.18.031.094.005.2-.067.269l-3.469 3.356.819 4.738a.265.265 0 01-.384.277l-4.288-2.237-4.288 2.237a.269.269 0 01-.123.03zm-20.23 0a.262.262 0 01-.261-.307l.819-4.74-3.469-3.355a.262.262 0 01.147-.449l4.794-.691L47.627.147a.265.265 0 01.474 0l2.144 4.311 4.794.691a.264.264 0 01.147.449l-3.47 3.356.82 4.738a.265.265 0 01-.384.277l-4.288-2.237-4.288 2.237a.269.269 0 01-.123.03zm-20.206 0a.262.262 0 01-.261-.307l.82-4.74-3.47-3.355a.262.262 0 01.148-.449l4.793-.691L27.421.147a.265.265 0 01.475 0l2.144 4.311 4.793.691c.1.015.183.084.214.18a.26.26 0 01-.067.269l-3.468 3.356.818 4.738a.265.265 0 01-.385.277l-4.287-2.237-4.287 2.237a.268.268 0 01-.123.03zM2.99 14a.262.262 0 01-.261-.307l.82-4.74-3.47-3.355a.262.262 0 01.148-.449l4.793-.691L7.164.147a.265.265 0 01.475 0l2.144 4.311 4.793.691c.1.015.183.084.214.18a.26.26 0 01-.067.269l-3.468 3.356.818 4.738a.265.265 0 01-.384.277l-4.287-2.237-4.288 2.237a.27.27 0 01-.123.03z" fill="#FFA800"></path>
  </symbol>
   <symbol xmlns="http://www.w3.org/2000/svg" viewBox="0 0 16 14" id="oneStar">
    <path fill="#E5E5E5" d="M0 0h16v14H0z"></path>
    <path fill="#fff" d="M-1179-267H741v2345h-1920z"></path>
    <path fill="url(#paint0_linear)" d="M-1179-97H741v720h-1920z"></path>
    <path d="M-980-67H542v947c0 5.523-4.477 10-10 10H-970c-5.523 0-10-4.477-10-10V-67z" fill="#fff"></path>
    <path d="M3.7 14a.262.262 0 01-.261-.307l.82-4.74-3.47-3.355a.262.262 0 01.147-.449l4.794-.691L7.874.147a.265.265 0 01.475 0l2.143 4.311 4.794.691c.1.015.183.084.214.18.031.094.005.2-.067.269l-3.469 3.356.819 4.738a.265.265 0 01-.384.277L8.11 11.732 3.823 13.97A.27.27 0 013.7 14z" fill="#FFA800"></path>
    <defs>
      <linearGradient id="paint0_linear" x1="-219" y1="-97" x2="-219" y2="623" gradientUnits="userSpaceOnUse">
        <stop stop-color="#219653"></stop>
        <stop offset="1" stop-color="#fff"></stop>
      </linearGradient>
    </defs>
  </symbol>
   
  <symbol xmlns="http://www.w3.org/2000/svg" viewBox="0 0 30 30" id="phone">
    <path d="M29.2129 23.1434L23.1408 19.094C22.3702 18.5843 21.3373 18.752 20.7676 19.4795L18.9989 21.7536C18.7715 22.0533 18.3583 22.1403 18.0295 21.9576L17.6931 21.7721C16.5777 21.1642 15.1899 20.4073 12.3939 17.6102C9.59777 14.8132 8.83939 13.4243 8.23145 12.3111L8.04696 11.9746C7.86178 11.6458 7.94708 11.2309 8.24691 11.0017L10.5195 9.23352C11.2467 8.66378 11.4147 7.63116 10.9055 6.86036L6.85611 0.788251C6.33429 0.00332834 5.28737 -0.232301 4.47954 0.253311L1.94041 1.77857C1.1426 2.2476 0.557275 3.00722 0.307176 3.89824C-0.607161 7.22974 0.0806853 12.9794 8.55044 21.4501C15.288 28.1871 20.3037 29.9989 23.7512 29.9989C24.5446 30.0023 25.3349 29.899 26.1009 29.6919C26.9921 29.4421 27.7518 28.8568 28.2206 28.0587L29.7473 25.5211C30.2337 24.7131 29.9981 23.6655 29.2129 23.1434ZM28.8859 25.0081L27.3626 27.5473C27.0261 28.1233 26.4796 28.5468 25.8378 28.7291C22.7623 29.5735 17.3891 28.8741 9.2578 20.7428C1.12649 12.6115 0.427158 7.23876 1.27154 4.16275C1.4541 3.52019 1.87813 2.97306 2.45485 2.63596L4.99398 1.11269C5.34449 0.901789 5.79888 1.00402 6.02531 1.34463L8.22501 4.64713L10.0713 7.41621C10.2924 7.75056 10.2197 8.19867 9.90429 8.44608L7.63113 10.2143C6.93936 10.7433 6.74181 11.7004 7.16772 12.46L7.34822 12.7879C7.98715 13.9598 8.7815 15.4175 11.6816 18.3171C14.5817 21.2167 16.039 22.0111 17.2103 22.65L17.5387 22.8309C18.2982 23.2568 19.2554 23.0593 19.7844 22.3675L21.5526 20.0944C21.8 19.7791 22.248 19.7065 22.5824 19.9274L28.654 23.9768C28.9949 24.2031 29.0971 24.6577 28.8859 25.0081Z"></path>
  </symbol>

   <symbol fill="none" xmlns="http://www.w3.org/2000/svg" viewBox="0 0 18 20" id="warranty">
    <path fill="#E5E5E5" d="M0 0h18v20H0z"></path>
    <path fill="#fff" d="M-983-589H937v2345H-983z"></path>
    <path fill="url(#paint0_linear)" d="M-983-419H937v720H-983z"></path>
    <path d="M-784-389H738v947c0 5.523-4.477 10-10 10H-774c-5.523 0-10-4.477-10-10v-947z" fill="#fff"></path>
    <g clip-path="url(#clip0)" fill="#219653">
      <path d="M17.496 5.427V5.41a20.807 20.807 0 01-.019-.622 2.12 2.12 0 00-1.996-2.076c-2.3-.128-4.078-.878-5.598-2.36L9.87.341a1.28 1.28 0 00-1.74 0l-.013.012C6.597 1.835 4.82 2.585 2.52 2.713A2.12 2.12 0 00.523 4.79c-.003.224-.009.427-.018.62v.037c-.045 2.345-.1 5.263.875 7.912a10.071 10.071 0 002.417 3.763c1.214 1.186 2.805 2.127 4.728 2.797A1.469 1.469 0 009 20a1.437 1.437 0 00.476-.081c1.92-.672 3.51-1.613 4.723-2.798a10.088 10.088 0 002.417-3.765c.98-2.656.924-5.58.88-7.93zm-1.981 7.523c-1.03 2.792-3.132 4.71-6.426 5.861a.261.261 0 01-.177 0c-3.298-1.15-5.401-3.066-6.43-5.858-.9-2.441-.85-5.12-.804-7.483v-.014c.01-.203.015-.415.019-.65a.942.942 0 01.888-.921c1.3-.073 2.444-.324 3.495-.769a9.143 9.143 0 002.848-1.913.108.108 0 01.145 0 9.147 9.147 0 002.848 1.913c1.05.445 2.194.696 3.495.769.49.027.88.432.888.922.003.235.01.448.018.65.045 2.365.095 5.046-.807 7.493z"></path>
      <path d="M9 5.016A4.99 4.99 0 004.016 10 4.99 4.99 0 009 14.985 4.99 4.99 0 0013.984 10 4.99 4.99 0 009 5.016zm0 8.795a3.815 3.815 0 01-3.81-3.81C5.19 7.898 6.898 6.19 9 6.19S12.81 7.9 12.81 10A3.814 3.814 0 019 13.811z"></path>
      <path d="M10.432 8.453l-2.315 2.315-.628-.628a.587.587 0 00-.83.83l1.044 1.043a.585.585 0 00.83 0l2.73-2.73a.587.587 0 00-.83-.83z"></path>
    </g>
    <defs>
      <linearGradient id="paint0_linear" x1="-23" y1="-419" x2="-23" y2="301" gradientUnits="userSpaceOnUse">
        <stop stop-color="#219653"></stop>
        <stop offset="1" stop-color="#fff"></stop>
      </linearGradient>
      <clipPath id="clip0">
        <path fill="#fff" transform="translate(-1)" d="M0 0h20v20H0z"></path>
      </clipPath>
    </defs>
  </symbol>
  <symbol fill="none" xmlns="http://www.w3.org/2000/svg" viewBox="0 0 20 20" id="deliveryTerms">
    <path fill="#E5E5E5" d="M0 0h20v20H0z"></path>
    <path fill="#fff" d="M-982-670H938v2345H-982z"></path>
    <path fill="url(#paint0_linear)" d="M-982-500H938v720H-982z"></path>
    <path d="M-783-470H739v947c0 5.523-4.477 10-10 10H-773c-5.523 0-10-4.477-10-10v-947z" fill="#fff"></path>
    <path d="M16.667 11.011V4.583a.405.405 0 00-.066-.21l.006-.004-2.5-4.167A.417.417 0 0013.75 0H2.917a.417.417 0 00-.358.202L.06 4.37l.006.003a.405.405 0 00-.066.21V16.25c0 .23.186.417.417.417H11.01A4.588 4.588 0 0015.417 20 4.589 4.589 0 0020 15.417a4.588 4.588 0 00-3.333-4.406zM13.514.833l2 3.334h-4.756L10.092.833h3.422zm-6.09 0h1.818l.674 3.334H6.758L7.425.833zM10 5v1.667H6.665L6.66 5H10zM3.153.833h3.423l-.66 3.334H1.153l2-3.334zm7.701 15H.835V5h5v2.083c0 .23.186.417.416.417h4.167c.23 0 .416-.186.416-.417L10.827 5h5.006v5.854a4.59 4.59 0 00-.416-.02 4.588 4.588 0 00-4.584 4.583c0 .14.009.279.021.416zm4.563 3.334a3.754 3.754 0 01-3.75-3.75 3.754 3.754 0 013.75-3.75 3.754 3.754 0 013.75 3.75 3.754 3.754 0 01-3.75 3.75z" fill="#219653"></path>
    <path d="M17.205 13.872l-2.622 2.622-.955-.955a.416.416 0 10-.59.589l1.25 1.25a.415.415 0 00.59 0l2.917-2.917a.416.416 0 10-.59-.589z" fill="#219653"></path>
    <defs>
      <linearGradient id="paint0_linear" x1="-22" y1="-500" x2="-22" y2="220" gradientUnits="userSpaceOnUse">
        <stop stop-color="#219653"></stop>
        <stop offset="1" stop-color="#fff"></stop>
      </linearGradient>
    </defs>
  </symbol>
  <symbol fill="none" xmlns="http://www.w3.org/2000/svg" viewBox="0 0 20 18" id="terms-of-payment">
    <path fill="#E5E5E5" d="M0 0h20v18H0z"></path>
    <path fill="#fff" d="M-981-753H939v2345H-981z"></path>
    <path fill="url(#paint0_linear)" d="M-981-583H939v720H-981z"></path>
    <path d="M-782-553H740v947c0 5.523-4.477 10-10 10H-772c-5.523 0-10-4.477-10-10v-947z" fill="#fff"></path>
    <g clip-path="url(#clip0)" fill="#219653">
      <path d="M19 12.205h-1.92l-.539 4.064a1.008 1.008 0 01-1.125.86L.87 15.2a1 1 0 01-.86-1.125l1.228-9.257a1 1 0 011.121-.863l.964.127V1.864a1 1 0 011-1H19a1 1 0 011 1v9.34a1 1 0 01-1 1zm-2.593 0h-2.604l2.56.339.044-.34zM.67 14.165a.327.327 0 00.066.244.334.334 0 00.222.13l14.545 1.928a.338.338 0 00.377-.287l.132-.993L.802 13.17l-.132.995zm2.652-9.41l-1.05-.138a.334.334 0 00-.374.287l-.744 5.623 2.168.286V4.755zm.044 6.737l-2.301-.304-.175 1.32 15.21 2.017.1-.764.074-.556-7.548-1H4.323a1 1 0 01-.957-.713zm15.967-9.628a.334.334 0 00-.334-.333H4.323a.334.334 0 00-.334.333v9.33l.002.01c0 .184.15.333.333.333H19a.334.334 0 00.334-.333v-9.34z"></path>
      <path d="M14.645 7.194c.134.099.253.217.352.351a1.665 1.665 0 111.334 2.658 1.662 1.662 0 01-1.334-.677 1.668 1.668 0 11-.352-2.332zm1.686 2.342a1 1 0 100-2.001 1 1 0 000 2.001zm-2.669 0a1 1 0 100-2.001 1 1 0 000 2.001zM5.99 9.87h-.666v-.667h.667v.667zm4.67 0H6.659v-.667h4.003v.667zm0-1.334H5.325v-.668h5.337v.668zm7.005-3.003H5.657a.334.334 0 01-.333-.333V3.199c0-.185.149-.334.333-.334h12.008c.184 0 .334.15.334.334v2c0 .185-.15.334-.334.334zm-.333-2H5.99v1.333h11.34V3.532z"></path>
    </g>
    <defs>
      <linearGradient id="paint0_linear" x1="-21" y1="-583" x2="-21" y2="137" gradientUnits="userSpaceOnUse">
        <stop stop-color="#219653"></stop>
        <stop offset="1" stop-color="#fff"></stop>
      </linearGradient>
      <clipPath id="clip0">
        <path fill="#fff" transform="matrix(1 0 0 -1 0 19)" d="M0 0h20v20H0z"></path>
      </clipPath>
    </defs>
  </symbol>
    <symbol fill="none" xmlns="http://www.w3.org/2000/svg" viewBox="0 0 95 14" id="fourStars">
    <path fill="#E5E5E5" d="M0 0h95v14H0z"></path>
    <path fill="#fff" d="M-1215-977H705v2345h-1920z"></path>
    <path d="M-1016-777H506v947c0 5.523-4.477 10-10 10h-1502c-5.52 0-10-4.477-10-10v-947z" fill="#fff"></path>
    <path d="M63.683 14a.262.262 0 01-.261-.307l.82-4.74-3.47-3.355a.262.262 0 01.148-.449l4.793-.691L67.857.147a.265.265 0 01.475 0l2.143 4.311 4.794.691c.1.015.183.084.214.18.031.094.005.2-.067.269l-3.469 3.356.819 4.738a.265.265 0 01-.384.277l-4.288-2.237-4.288 2.237a.269.269 0 01-.123.03zm-20.23 0a.262.262 0 01-.261-.307l.819-4.74-3.469-3.355a.262.262 0 01.147-.449l4.794-.691L47.627.147a.265.265 0 01.474 0l2.144 4.311 4.794.691a.264.264 0 01.147.449l-3.47 3.356.82 4.738a.265.265 0 01-.384.277l-4.288-2.237-4.288 2.237a.269.269 0 01-.123.03zm-20.206 0a.262.262 0 01-.261-.307l.82-4.74-3.47-3.355a.262.262 0 01.148-.449l4.793-.691L27.421.147a.265.265 0 01.475 0l2.144 4.311 4.793.691c.1.015.183.084.214.18a.26.26 0 01-.067.269l-3.468 3.356.818 4.738a.265.265 0 01-.385.277l-4.287-2.237-4.287 2.237a.268.268 0 01-.123.03zM2.99 14a.262.262 0 01-.261-.307l.82-4.74-3.47-3.355a.262.262 0 01.148-.449l4.793-.691L7.164.147a.265.265 0 01.475 0l2.144 4.311 4.793.691c.1.015.183.084.214.18a.26.26 0 01-.067.269l-3.468 3.356.818 4.738a.265.265 0 01-.384.277l-4.287-2.237-4.288 2.237a.27.27 0 01-.123.03z" fill="#FFA800"></path>
    <path opacity=".5" d="M82.7 14a.262.262 0 01-.261-.307l.82-4.74-3.47-3.355a.262.262 0 01.147-.449l4.794-.691L86.874.147a.265.265 0 01.475 0l2.143 4.311 4.794.691c.1.015.183.084.214.18.031.094.005.2-.067.269l-3.469 3.356.819 4.738a.265.265 0 01-.385.277l-4.287-2.237-4.288 2.237a.27.27 0 01-.123.03z" fill="#FFA800"></path>
  </symbol>
    <symbol xmlns="http://www.w3.org/2000/svg" viewBox="0 0 95 14" id="twoStars">
    <path fill="#E5E5E5" d="M0 0h95v14H0z"></path>
    <path fill="#fff" d="M-1204-1232H716v2345h-1920z"></path>
    <path d="M23.247 14a.262.262 0 01-.261-.307l.82-4.74-3.47-3.355a.262.262 0 01.148-.449l4.793-.691L27.421.147a.265.265 0 01.475 0l2.144 4.311 4.793.691c.1.015.183.084.214.18a.26.26 0 01-.067.269l-3.468 3.356.818 4.738a.265.265 0 01-.385.277l-4.287-2.237-4.287 2.237a.268.268 0 01-.123.03zM2.99 14a.262.262 0 01-.261-.307l.82-4.74-3.47-3.355a.262.262 0 01.148-.449l4.793-.691L7.164.147a.265.265 0 01.475 0l2.144 4.311 4.793.691c.1.015.183.084.214.18a.26.26 0 01-.067.269l-3.468 3.356.818 4.738a.265.265 0 01-.384.277l-4.287-2.237-4.288 2.237a.27.27 0 01-.123.03z" fill="#FFA800"></path>
    <path opacity=".5" d="M82.7 14a.262.262 0 01-.261-.307l.82-4.74-3.47-3.355a.262.262 0 01.147-.449l4.794-.691L86.874.147a.265.265 0 01.475 0l2.143 4.311 4.794.691c.1.015.183.084.214.18.031.094.005.2-.067.269l-3.469 3.356.819 4.738a.265.265 0 01-.385.277l-4.287-2.237-4.288 2.237a.27.27 0 01-.123.03zm-39.21 0a.261.261 0 01-.261-.307l.82-4.74-3.47-3.355a.262.262 0 01.148-.449l4.793-.691L47.664.147a.265.265 0 01.475 0l2.144 4.311 4.794.691a.264.264 0 01.147.449l-3.47 3.356.82 4.738a.265.265 0 01-.385.277l-4.287-2.237-4.288 2.237a.27.27 0 01-.123.03zm20.5 0a.261.261 0 01-.261-.307l.82-4.74-3.47-3.355a.262.262 0 01.148-.449l4.793-.691L68.164.147a.265.265 0 01.475 0l2.144 4.311 4.793.691a.264.264 0 01.148.449l-3.47 3.356.82 4.738a.265.265 0 01-.385.277l-4.287-2.237-4.288 2.237a.27.27 0 01-.123.03z" fill="#FFA800"></path>
  </symbol>
 <symbol width="112" height="17" xmlns="http://www.w3.org/2000/svg" viewBox="0 0 112 17" id="threeStars">
    <title>background</title>
    <path fill="none" d="M-1-1h582v402H-1z"></path>
    <title>Layer 1</title>
    <path fill="#FFA800" d="M44.345 15a.262.262 0 01-.261-.307l.82-4.74-3.47-3.355a.262.262 0 01.148-.449l4.793-.691 2.144-4.311a.265.265 0 01.475 0l2.143 4.311 4.794.691c.1.015.183.084.214.18.031.094.005.2-.067.269l-3.469 3.356.819 4.738a.265.265 0 01-.385.277l-4.287-2.237-4.288 2.237a.269.269 0 01-.123.03zM24.14 15a.266.266 0 01-.156-.05.261.261 0 01-.105-.258l.819-4.739-3.469-3.355a.262.262 0 01.147-.449l4.794-.691 2.143-4.311a.265.265 0 01.475 0l2.144 4.311 4.794.691a.264.264 0 01.147.449l-3.47 3.356.82 4.738a.265.265 0 01-.385.277l-4.287-2.237-4.288 2.237a.269.269 0 01-.123.03zM3.883 15a.262.262 0 01-.261-.307l.819-4.74L.972 6.598a.262.262 0 01.147-.449l4.794-.691 2.144-4.311a.265.265 0 01.474 0l2.144 4.311 4.794.691a.264.264 0 01.147.449l-3.469 3.356.819 4.738a.265.265 0 01-.384.277l-4.288-2.237-4.288 2.237a.27.27 0 01-.123.03z"></path>
    <path fill="#FFA800" d="M83.593 15a.261.261 0 01-.261-.307l.819-4.74-3.47-3.355a.262.262 0 01.148-.449l4.793-.691 2.144-4.311a.265.265 0 01.475 0l2.144 4.311 4.793.691c.1.015.183.084.214.18a.26.26 0 01-.067.269l-3.468 3.356.818 4.738a.265.265 0 01-.385.277l-4.286-2.237-4.288 2.237a.27.27 0 01-.123.03zM63.99 15a.261.261 0 01-.261-.307l.82-4.74-3.47-3.355a.262.262 0 01.148-.449l4.793-.691 2.144-4.311a.265.265 0 01.475 0l2.144 4.311 4.793.691a.262.262 0 01.147.449l-3.468 3.356.818 4.738a.265.265 0 01-.385.277l-4.286-2.237-4.288 2.237a.27.27 0 01-.123.03z" opacity=".5"></path>
  </symbol>
    <symbol  xmlns="http://www.w3.org/2000/svg" viewBox="0 0 20 20" id="logIn">
    <path d="M19.993 9.607a.42.42 0 00-.44-.41.425.425 0 00-.41.44 9.129 9.129 0 01-2.572 6.719 9.063 9.063 0 01-6.573 2.793.426.426 0 000 .851 9.907 9.907 0 007.185-3.053 9.974 9.974 0 002.81-7.34z" fill="#FFBE48"></path>
    <path d="M19.99 9.807a9.931 9.931 0 00-3.216-7.153C12.967-.885 7.005-.885 3.2 2.654A9.94 9.94 0 00.002 9.81a9.928 9.928 0 002.932 7.258.425.425 0 00.61-.008c.117-.124.261-.273.318-.327a.439.439 0 00.056-.048l.94-.938h3.055a.849.849 0 00.795-.544.823.823 0 00-.196-.906 4.33 4.33 0 01-1.28-3.08V7.559c0-.372.142-.709.408-.975.259-.26.614-.407.975-.407h2.743c.372 0 .71.14.976.407.259.258.407.614.407.975v3.658a4.342 4.342 0 01-1.292 3.094.858.858 0 00-.143.926c.138.315.435.51.776.51h3.232a.426.426 0 000-.851l-3.226.005a.04.04 0 01-.007-.02 5.174 5.174 0 001.51-3.664V7.559c0-.585-.239-1.16-.656-1.577a2.216 2.216 0 00-1.577-.656H8.615c-.585 0-1.16.24-1.577.656a2.218 2.218 0 00-.656 1.577v3.658c0 1.388.543 2.696 1.531 3.679H4.681a.426.426 0 00-.301.125l-1.057 1.057a1.835 1.835 0 00-.086.077 9.077 9.077 0 01-2.384-6.33A9.097 9.097 0 013.78 3.277C7.26.04 12.713.04 16.195 3.277a9.09 9.09 0 012.945 6.546 9.071 9.071 0 01-2.68 6.644.425.425 0 00.6.601 9.914 9.914 0 002.93-7.26z"></path>
  </symbol>
</svg>


